<svg width="67" height="27" viewBox="0 0 67 27" fill="none" xmlns="http://www.w3.org/2000/svg">
<path d="M64.2354 3.26918C64.2354 1.71223 62.9964 0.431625 61.4251 0.364485L52.8948 0L44.3646 0.364485C42.7933 0.431625 41.5543 1.71223 41.5543 3.26917V5.7864C41.5543 7.54974 43.1272 8.90711 44.8918 8.66663L46.9969 8.37975C47.8792 8.25951 48.6656 8.9382 48.6656 9.81986V23.7437C48.6656 25.3494 49.9806 26.6511 51.6026 26.6511H54.1871C55.8091 26.6511 57.1241 25.3494 57.1241 23.7437V9.81986C57.1241 8.9382 57.9105 8.25951 58.7928 8.37975L60.8979 8.66663C62.6625 8.90711 64.2354 7.54974 64.2354 5.7864V3.26918Z" fill="#D4B7A3"/>
<path fill-rule="evenodd" clip-rule="evenodd" d="M31.3772 22.4994C30.1195 22.4994 29.0294 23.3611 28.7511 24.5752C28.4728 25.7894 27.3827 26.6511 26.125 26.6511H23.152C21.2315 26.6511 19.8277 24.8563 20.3087 23.0156L24.7096 6.17301C25.5983 2.77181 28.5758 0.30817 32.1148 0.0458666C32.5268 0.0153316 32.9405 0.0153316 33.3524 0.0458665C36.8914 0.30817 39.8689 2.77181 40.7576 6.173L45.1586 23.0156C45.6395 24.8563 44.2358 26.6511 42.3152 26.6511H39.3462C38.084 26.6511 36.9876 25.7915 36.6985 24.5752C36.4094 23.3589 35.313 22.4994 34.0508 22.4994H31.3772ZM31.5866 6.42304C31.8519 6.07575 32.2317 5.81479 32.6673 5.81479C33.1028 5.81479 33.4826 6.07575 33.7479 6.42304C34.0139 6.77122 34.1799 7.22419 34.1799 7.64688C34.1799 8.06957 34.0139 8.52253 33.7479 8.87072C33.4826 9.21801 33.1028 9.47897 32.6673 9.47897C32.2317 9.47897 31.8519 9.21801 31.5866 8.87072C31.3206 8.52253 31.1546 8.06957 31.1546 7.64688C31.1546 7.22419 31.3206 6.77122 31.5866 6.42304ZM35.23 8.03322C35.5692 7.77664 35.9951 7.63084 36.4084 7.74233C36.8213 7.85374 37.1172 8.19391 37.2831 8.5861C37.4495 8.9791 37.495 9.44483 37.3897 9.84032C37.2845 10.2359 37.0136 10.6167 36.6739 10.8737C36.3348 11.1303 35.9088 11.2761 35.4956 11.1646C35.0826 11.0532 34.7868 10.713 34.6208 10.3208C34.4545 9.92785 34.409 9.46212 34.5142 9.06663C34.6195 8.67107 34.8903 8.29025 35.23 8.03322ZM30.9 9.11021C30.7923 8.70551 30.5152 8.31576 30.1675 8.0527C29.8204 7.79008 29.3848 7.64113 28.9624 7.75508C28.5405 7.86893 28.2378 8.21667 28.0679 8.61811C27.8977 9.02036 27.8511 9.497 27.9588 9.90162C28.0665 10.3063 28.3437 10.6961 28.6914 10.9591C29.0385 11.2218 29.4741 11.3707 29.8964 11.2568C30.3184 11.1429 30.621 10.7952 30.7909 10.3937C30.9612 9.99148 31.0077 9.51483 30.9 9.11021ZM32.6601 9.87202L32.6532 9.87191C32.6412 9.87176 32.6242 9.87185 32.6029 9.87267C32.5605 9.87432 32.5007 9.87891 32.4287 9.89059C32.2848 9.91392 32.0903 9.96577 31.8865 10.08C31.4733 10.3118 31.0424 10.7888 30.9018 11.7462C30.8917 11.8146 30.8685 11.8562 30.8407 11.885C30.8115 11.9153 30.769 11.9399 30.7074 11.9601C30.6451 11.9804 30.5705 11.994 30.4823 12.0067L30.4572 12.0102C30.4368 12.013 30.4156 12.0159 30.3939 12.0188C30.3314 12.0271 30.2642 12.0361 30.1986 12.0472C29.9993 12.0809 29.7766 12.1394 29.5863 12.2929C29.3933 12.4486 29.248 12.6902 29.1789 13.0626C29.1103 13.4322 29.1431 13.739 29.2486 13.9876C29.3541 14.2365 29.5289 14.4188 29.7299 14.5448C30.1261 14.7929 30.6334 14.828 30.955 14.7251C31.2274 14.6384 31.6519 14.5858 32.0174 14.5553C32.1983 14.5403 32.3616 14.5308 32.4796 14.5252C32.5386 14.5223 32.5862 14.5205 32.619 14.5193C32.6354 14.5187 32.6481 14.5183 32.6566 14.518L32.666 14.5177L32.6757 14.518C32.6842 14.5183 32.6968 14.5187 32.7132 14.5193C32.7459 14.5205 32.7934 14.5223 32.8522 14.5252C32.9699 14.5308 33.1327 14.5403 33.3132 14.5553C33.6779 14.5858 34.1016 14.6384 34.3741 14.7251C34.6954 14.8273 35.2026 14.7924 35.5985 14.5443C35.7994 14.4184 35.9739 14.2361 36.0791 13.9874C36.1843 13.7388 36.2169 13.4321 36.148 13.0626C36.0786 12.6882 35.9257 12.4463 35.7243 12.2912C35.5265 12.1387 35.2951 12.0806 35.0904 12.0471C35.0252 12.0364 34.9582 12.0276 34.8961 12.0194L34.8958 12.0194L34.8953 12.0193C34.8622 12.015 34.8304 12.0108 34.8011 12.0066C34.7121 11.9939 34.6389 11.9805 34.5801 11.9605C34.5218 11.9407 34.4874 11.9178 34.4668 11.8925C34.4476 11.8691 34.4308 11.8319 34.4308 11.7637V11.7538L34.4292 11.744C34.2672 10.7674 33.8383 10.2901 33.4301 10.0634C33.2287 9.95158 33.0378 9.90384 32.8967 9.88405C32.8262 9.87415 32.7677 9.8712 32.7261 9.87079C32.7053 9.87059 32.6887 9.87102 32.6768 9.87154L32.6686 9.87195L32.6652 9.87215L32.6601 9.87202Z" fill="#D4B7A3"/>
<path d="M8.94792 20.3363H13.4669C15.0646 20.3363 16.3921 20.0688 17.4494 19.5338C18.5302 18.9989 19.3996 18.2778 20.0574 17.3707C20.7388 16.4403 21.2205 15.3588 21.5024 14.1261C21.7844 12.8933 21.9253 11.5676 21.9253 10.1487C21.9253 3.70596 18.8944 0.242283 12.8325 0.242283H6.78338L2.83106 0.383449C1.25126 0.439874 0 1.72404 0 3.28895V23.7437C0 25.3494 1.31492 26.6511 2.93695 26.6511H5.03198C6.65402 26.6511 7.96894 25.3494 7.96894 23.7437V21.3054C7.96894 20.7701 8.40724 20.3363 8.94792 20.3363Z" fill="#D4B7A3"/>
<path d="M66.0484 21.348C65.4375 20.7433 64.6622 20.4409 63.7224 20.4409C62.7825 20.4409 61.9954 20.7433 61.361 21.348C60.7267 21.9528 60.4095 22.7436 60.4095 23.7205C60.4095 24.6508 60.7267 25.43 61.361 26.058C61.9954 26.686 62.7825 27 63.7224 27C64.6622 27 65.4375 26.6976 66.0484 26.0929C66.6828 25.4882 67 24.6973 67 23.7205C67 22.7436 66.6828 21.9528 66.0484 21.348Z" fill="#D4B7A3"/>
</svg>
