<svg width="260" height="106" viewBox="0 0 260 106" fill="none" xmlns="http://www.w3.org/2000/svg">
<path d="M248.703 12.7795C248.703 6.69324 243.906 1.68726 237.822 1.4248L204.795 0L171.768 1.4248C165.685 1.68726 160.888 6.69324 160.888 12.7795V22.6195C160.888 29.5126 166.977 34.8187 173.81 33.8786L181.96 32.7572C185.376 32.2871 188.421 34.9402 188.421 38.3867V92.8162C188.421 99.0931 193.512 104.181 199.792 104.181H209.799C216.079 104.181 221.17 99.0931 221.17 92.8162V38.3867C221.17 34.9402 224.215 32.2871 227.631 32.7572L235.781 33.8786C242.613 34.8187 248.703 29.5126 248.703 22.6195V12.7795Z" fill="url(#paint0_radial)"/>
<path fill-rule="evenodd" clip-rule="evenodd" d="M121.484 87.9519C116.615 87.9519 112.394 91.3206 111.317 96.0667C110.24 100.813 106.019 104.181 101.149 104.181H89.6388C82.2028 104.181 76.7678 97.1654 78.6299 89.9701L95.6692 24.1308C99.1101 10.8353 110.638 1.20466 124.34 0.179296C125.935 0.0599324 127.537 0.0599324 129.132 0.179296C142.834 1.20466 154.362 10.8352 157.803 24.1308L174.842 89.9701C176.705 97.1654 171.27 104.181 163.834 104.181H152.338C147.451 104.181 143.207 100.821 142.087 96.0667C140.968 91.3121 136.723 87.9519 131.836 87.9519H121.484ZM122.295 25.1082C123.323 23.7506 124.793 22.7305 126.479 22.7305C128.166 22.7305 129.636 23.7506 130.663 25.1082C131.693 26.4693 132.336 28.24 132.336 29.8923C132.336 31.5446 131.693 33.3153 130.663 34.6764C129.636 36.034 128.166 37.0541 126.479 37.0541C124.793 37.0541 123.323 36.034 122.295 34.6764C121.265 33.3153 120.623 31.5446 120.623 29.8923C120.623 28.24 121.265 26.4693 122.295 25.1082ZM136.402 31.4026C137.715 30.3995 139.364 29.8296 140.964 30.2654C142.563 30.7009 143.708 32.0307 144.351 33.5638C144.995 35.1001 145.171 36.9206 144.763 38.4667C144.356 40.0129 143.307 41.5016 141.992 42.5063C140.679 43.5094 139.03 44.0793 137.43 43.6435C135.831 43.208 134.685 41.8782 134.043 40.3451C133.399 38.8088 133.223 36.9883 133.63 35.4422C134.038 33.896 135.086 32.4073 136.402 31.4026ZM119.637 35.6126C119.22 34.0306 118.147 32.507 116.801 31.4787C115.457 30.4521 113.77 29.8698 112.135 30.3153C110.501 30.7603 109.33 32.1197 108.672 33.6889C108.013 35.2614 107.833 37.1246 108.249 38.7063C108.666 40.2883 109.739 41.8119 111.086 42.8402C112.43 43.8668 114.116 44.449 115.751 44.0036C117.385 43.5586 118.557 42.1992 119.215 40.6299C119.874 39.0575 120.054 37.1943 119.637 35.6126ZM126.451 38.5906L126.425 38.5901C126.378 38.5896 126.313 38.5899 126.23 38.5931C126.066 38.5995 125.835 38.6175 125.556 38.6632C124.999 38.7544 124.246 38.957 123.457 39.4038C121.857 40.3097 120.188 42.1743 119.644 45.917C119.605 46.1841 119.515 46.3469 119.407 46.4596C119.294 46.578 119.13 46.6742 118.891 46.753C118.65 46.8326 118.361 46.8855 118.02 46.9351L117.922 46.9489C117.844 46.9599 117.762 46.971 117.677 46.9823C117.435 47.015 117.175 47.0501 116.921 47.0934C116.149 47.2253 115.287 47.4539 114.551 48.054C113.803 48.6627 113.241 49.607 112.973 51.0626C112.707 52.5075 112.835 53.7067 113.243 54.6788C113.652 55.6515 114.328 56.3643 115.107 56.8567C116.64 57.8267 118.605 57.964 119.85 57.5615C120.905 57.2227 122.548 57.0172 123.963 56.8981C124.664 56.8391 125.296 56.8022 125.753 56.7801C125.981 56.7691 126.165 56.7617 126.292 56.7571C126.356 56.7548 126.405 56.7532 126.438 56.7522L126.475 56.7511L126.512 56.7522C126.545 56.7532 126.594 56.7548 126.657 56.7571C126.784 56.7617 126.968 56.7691 127.195 56.7801C127.651 56.8022 128.282 56.8391 128.98 56.898C130.392 57.0171 132.033 57.2226 133.088 57.5615C134.332 57.9613 136.296 57.8246 137.828 56.8548C138.606 56.3626 139.282 55.6503 139.689 54.6778C140.097 53.7061 140.223 52.5073 139.956 51.0626C139.687 49.5992 139.095 48.6538 138.315 48.0473C137.549 47.4514 136.654 47.2243 135.861 47.093C135.609 47.0512 135.349 47.0168 135.109 46.985L135.108 46.9848L135.106 46.9846C134.978 46.9676 134.855 46.9513 134.741 46.935C134.396 46.8854 134.113 46.8327 133.885 46.7546C133.66 46.6774 133.526 46.5877 133.447 46.4889C133.372 46.3973 133.307 46.252 133.307 45.9852V45.9466L133.301 45.9085C132.674 42.0905 131.013 40.2249 129.433 39.3387C128.653 38.9016 127.914 38.7149 127.368 38.6376C127.095 38.5989 126.868 38.5874 126.707 38.5858C126.627 38.585 126.562 38.5867 126.516 38.5887L126.484 38.5903L126.471 38.5911L126.451 38.5906Z" fill="url(#paint1_radial)"/>
<path d="M34.6441 79.4962H52.1405C58.3264 79.4962 63.4661 78.4506 67.5597 76.3593C71.7443 74.2681 75.1102 71.4496 77.6573 67.9036C80.2954 64.2667 82.1603 60.0388 83.2519 55.22C84.3435 50.4011 84.8893 45.2186 84.8893 39.6723C84.8893 14.4869 73.1543 0.947104 49.6843 0.947104H26.2635L10.9611 1.49893C4.84457 1.71951 0 6.73941 0 12.8568V92.8162C0 99.0931 5.09103 104.181 11.3711 104.181H19.4826C25.7627 104.181 30.8537 99.0931 30.8537 92.8162V83.2846C30.8537 81.1923 32.5507 79.4962 34.6441 79.4962Z" fill="url(#paint2_radial)"/>
<path d="M255.723 83.4513C253.357 81.0873 250.356 79.9053 246.717 79.9053C243.078 79.9053 240.031 81.0873 237.574 83.4513C235.118 85.8152 233.89 88.9066 233.89 92.7253C233.89 96.3622 235.118 99.4081 237.574 101.863C240.031 104.318 243.078 105.545 246.717 105.545C250.356 105.545 253.357 104.363 255.723 101.999C258.179 99.6354 259.407 96.544 259.407 92.7253C259.407 88.9066 258.179 85.8152 255.723 83.4513Z" fill="url(#paint3_radial)"/>
<defs>
<radialGradient id="paint0_radial" cx="0" cy="0" r="1" gradientUnits="userSpaceOnUse" gradientTransform="translate(-9.38182 -90.0653) rotate(46.9131) scale(243.435 598.31)">
<stop stop-color="#FF5D01"/>
<stop offset="1" stop-color="#FF145B"/>
</radialGradient>
<radialGradient id="paint1_radial" cx="0" cy="0" r="1" gradientUnits="userSpaceOnUse" gradientTransform="translate(-9.38182 -90.0653) rotate(46.9131) scale(243.435 598.31)">
<stop stop-color="#FF5D01"/>
<stop offset="1" stop-color="#FF145B"/>
</radialGradient>
<radialGradient id="paint2_radial" cx="0" cy="0" r="1" gradientUnits="userSpaceOnUse" gradientTransform="translate(-9.38182 -90.0653) rotate(46.9131) scale(243.435 598.31)">
<stop stop-color="#FF5D01"/>
<stop offset="1" stop-color="#FF145B"/>
</radialGradient>
<radialGradient id="paint3_radial" cx="0" cy="0" r="1" gradientUnits="userSpaceOnUse" gradientTransform="translate(-9.38182 -90.0653) rotate(46.9131) scale(243.435 598.31)">
<stop stop-color="#FF5D01"/>
<stop offset="1" stop-color="#FF145B"/>
</radialGradient>
</defs>
</svg>
