<svg width="110" height="1288" viewBox="0 0 110 1288" fill="none" xmlns="http://www.w3.org/2000/svg">
<path d="M27.4633 1236C24.9538 1236 22.7653 1237.51 21.2365 1239.53C19.7038 1241.55 18.7475 1244.18 18.7475 1246.63C18.7475 1249.08 19.7038 1251.71 21.2365 1253.73C22.7653 1255.74 24.9538 1257.25 27.4633 1257.25C29.9728 1257.25 32.1613 1255.74 33.6902 1253.73C35.2229 1251.71 36.1792 1249.08 36.1792 1246.63C36.1792 1244.18 35.2229 1241.55 33.6902 1239.53C32.1613 1237.51 29.9728 1236 27.4633 1236Z" fill="#FFE9D9" fill-opacity="0.4"/>
<path d="M49.0202 1247.18C46.639 1246.53 44.1845 1247.38 42.2304 1248.87C40.2729 1250.36 38.7123 1252.57 38.1058 1254.86C37.4994 1257.16 37.7616 1259.86 38.7199 1262.14C39.6762 1264.41 41.3811 1266.39 43.7603 1267.03C46.1415 1267.68 48.596 1266.83 50.5501 1265.35C52.5076 1263.85 54.0682 1261.65 54.6747 1259.35C55.2811 1257.06 55.0189 1254.36 54.0606 1252.08C53.1043 1249.8 51.3994 1247.83 49.0202 1247.18Z" fill="#FFE9D9" fill-opacity="0.4"/>
<path d="M17.2803 1255.12C16.6598 1252.77 15.0628 1250.51 13.0593 1248.98C11.0592 1247.46 8.54923 1246.59 6.11574 1247.26C3.68425 1247.92 1.94025 1249.93 0.96138 1252.26C-0.0194517 1254.59 -0.287638 1257.36 0.332789 1259.71C0.953319 1262.05 2.55032 1264.31 4.55378 1265.84C6.55388 1267.36 9.06389 1268.23 11.4974 1267.57C13.9289 1266.91 15.6729 1264.89 16.6517 1262.56C17.6326 1260.23 17.9008 1257.46 17.2803 1255.12Z" fill="#FFE9D9" fill-opacity="0.4"/>
<path d="M27.3826 1259.53C27.41 1259.53 27.433 1259.53 27.4514 1259.54C27.4575 1259.54 27.4639 1259.53 27.4709 1259.53C27.4849 1259.53 27.5007 1259.53 27.5184 1259.53C27.5869 1259.53 27.6827 1259.53 27.8026 1259.53C28.0421 1259.53 28.3789 1259.55 28.7856 1259.6C29.5983 1259.72 30.6983 1260 31.8587 1260.64C34.2112 1261.96 36.6826 1264.73 37.6157 1270.39L37.625 1270.45V1270.51C37.625 1270.9 37.7221 1271.12 37.8324 1271.26C37.9513 1271.4 38.1496 1271.53 38.4853 1271.65C38.8243 1271.77 39.2457 1271.84 39.759 1271.92C39.9288 1271.94 40.1124 1271.97 40.3041 1271.99C40.6622 1272.04 41.0491 1272.09 41.4256 1272.15C42.6052 1272.35 43.9385 1272.68 45.0785 1273.57C46.2386 1274.47 47.1197 1275.87 47.52 1278.04C47.9168 1280.19 47.7291 1281.96 47.1229 1283.41C46.5163 1284.85 45.5109 1285.91 44.3533 1286.64C42.0724 1288.08 39.15 1288.28 37.2981 1287.69C35.7284 1287.18 33.2869 1286.88 31.1855 1286.7C30.1455 1286.61 29.2072 1286.56 28.5289 1286.53C28.1899 1286.51 27.9163 1286.5 27.7279 1286.49C27.6337 1286.49 27.5608 1286.49 27.5117 1286.48L27.4563 1286.48L27.402 1286.48C27.3528 1286.49 27.2797 1286.49 27.1852 1286.49C26.9963 1286.5 26.7219 1286.51 26.3821 1286.53C25.702 1286.56 24.7614 1286.61 23.7191 1286.7C21.6128 1286.88 19.1667 1287.18 17.5972 1287.69C15.7442 1288.28 12.8207 1288.08 10.5382 1286.64C9.37954 1285.91 8.37281 1284.85 7.7647 1283.41C7.15694 1281.97 6.96748 1280.19 7.36279 1278.04C7.76106 1275.88 8.59862 1274.48 9.71057 1273.58C10.8068 1272.69 12.09 1272.35 13.2388 1272.15C13.6166 1272.09 14.0037 1272.04 14.364 1271.99C14.5418 1271.96 14.7131 1271.94 14.8735 1271.92C15.3817 1271.84 15.8112 1271.77 16.1703 1271.65C16.5256 1271.53 16.7704 1271.39 16.9387 1271.21C17.0989 1271.04 17.2325 1270.8 17.2903 1270.41C18.1007 1264.85 20.5835 1262.09 22.9648 1260.74C24.139 1260.08 25.2599 1259.78 26.0888 1259.64C26.5039 1259.57 26.8482 1259.55 27.0928 1259.54C27.2152 1259.53 27.313 1259.53 27.3826 1259.53Z" fill="#FFE9D9" fill-opacity="0.4"/>
<path d="M82.4633 1155C79.9538 1155 77.7653 1156.51 76.2365 1158.53C74.7038 1160.55 73.7475 1163.18 73.7475 1165.63C73.7475 1168.08 74.7038 1170.71 76.2365 1172.73C77.7653 1174.74 79.9538 1176.25 82.4633 1176.25C84.9728 1176.25 87.1613 1174.74 88.6902 1172.73C90.2229 1170.71 91.1792 1168.08 91.1792 1165.63C91.1792 1163.18 90.2229 1160.55 88.6902 1158.53C87.1613 1156.51 84.9728 1155 82.4633 1155Z" fill="#FFE9D9" fill-opacity="0.4"/>
<path d="M104.02 1166.18C101.639 1165.53 99.1845 1166.38 97.2304 1167.87C95.2729 1169.36 93.7123 1171.57 93.1058 1173.86C92.4994 1176.16 92.7616 1178.86 93.7199 1181.14C94.6762 1183.41 96.3811 1185.39 98.7603 1186.03C101.142 1186.68 103.596 1185.83 105.55 1184.35C107.508 1182.85 109.068 1180.65 109.675 1178.35C110.281 1176.06 110.019 1173.36 109.061 1171.08C108.104 1168.8 106.399 1166.83 104.02 1166.18Z" fill="#FFE9D9" fill-opacity="0.4"/>
<path d="M72.2803 1174.12C71.6598 1171.77 70.0628 1169.51 68.0593 1167.98C66.0592 1166.46 63.5492 1165.59 61.1157 1166.26C58.6842 1166.92 56.9402 1168.93 55.9614 1171.26C54.9805 1173.59 54.7124 1176.36 55.3328 1178.71C55.9533 1181.05 57.5503 1183.31 59.5538 1184.84C61.5539 1186.36 64.0639 1187.23 66.4974 1186.57C68.9289 1185.91 70.6729 1183.89 71.6517 1181.56C72.6326 1179.23 72.9008 1176.46 72.2803 1174.12Z" fill="#FFE9D9" fill-opacity="0.4"/>
<path d="M82.3826 1178.53C82.41 1178.53 82.433 1178.53 82.4514 1178.54C82.4575 1178.54 82.4639 1178.53 82.4709 1178.53C82.4849 1178.53 82.5007 1178.53 82.5184 1178.53C82.5869 1178.53 82.6827 1178.53 82.8026 1178.53C83.0421 1178.53 83.3789 1178.55 83.7856 1178.6C84.5983 1178.72 85.6983 1179 86.8587 1179.64C89.2112 1180.96 91.6826 1183.73 92.6157 1189.39L92.625 1189.45V1189.51C92.625 1189.9 92.7221 1190.12 92.8324 1190.26C92.9513 1190.4 93.1496 1190.53 93.4853 1190.65C93.8243 1190.77 94.2457 1190.84 94.759 1190.92C94.9288 1190.94 95.1124 1190.97 95.3041 1190.99C95.6622 1191.04 96.0491 1191.09 96.4256 1191.15C97.6052 1191.35 98.9385 1191.68 100.078 1192.57C101.239 1193.47 102.12 1194.87 102.52 1197.04C102.917 1199.19 102.729 1200.96 102.123 1202.41C101.516 1203.85 100.511 1204.91 99.3533 1205.64C97.0724 1207.08 94.15 1207.28 92.2981 1206.69C90.7284 1206.18 88.2869 1205.88 86.1855 1205.7C85.1455 1205.61 84.2072 1205.56 83.5289 1205.53C83.1899 1205.51 82.9163 1205.5 82.7279 1205.49C82.6337 1205.49 82.5608 1205.49 82.5117 1205.48L82.4563 1205.48L82.402 1205.48C82.3528 1205.49 82.2797 1205.49 82.1852 1205.49C81.9963 1205.5 81.7219 1205.51 81.3821 1205.53C80.702 1205.56 79.7614 1205.61 78.7191 1205.7C76.6128 1205.88 74.1667 1206.18 72.5972 1206.69C70.7442 1207.28 67.8207 1207.08 65.5382 1205.64C64.3795 1204.91 63.3728 1203.85 62.7647 1202.41C62.1569 1200.97 61.9675 1199.19 62.3628 1197.04C62.7611 1194.88 63.5986 1193.48 64.7106 1192.58C65.8068 1191.69 67.09 1191.35 68.2388 1191.15C68.6166 1191.09 69.0037 1191.04 69.364 1190.99C69.5418 1190.96 69.7131 1190.94 69.8735 1190.92C70.3817 1190.84 70.8112 1190.77 71.1703 1190.65C71.5256 1190.53 71.7704 1190.39 71.9387 1190.21C72.0989 1190.04 72.2325 1189.8 72.2903 1189.41C73.1007 1183.85 75.5835 1181.09 77.9648 1179.74C79.139 1179.08 80.2599 1178.78 81.0888 1178.64C81.5039 1178.57 81.8482 1178.55 82.0928 1178.54C82.2152 1178.53 82.313 1178.53 82.3826 1178.53Z" fill="#FFE9D9" fill-opacity="0.4"/>
<path d="M27.4633 1053C24.9538 1053 22.7653 1054.51 21.2365 1056.53C19.7038 1058.55 18.7475 1061.18 18.7475 1063.63C18.7475 1066.08 19.7038 1068.71 21.2365 1070.73C22.7653 1072.74 24.9538 1074.25 27.4633 1074.25C29.9728 1074.25 32.1613 1072.74 33.6902 1070.73C35.2229 1068.71 36.1792 1066.08 36.1792 1063.63C36.1792 1061.18 35.2229 1058.55 33.6902 1056.53C32.1613 1054.51 29.9728 1053 27.4633 1053Z" fill="#FFE9D9" fill-opacity="0.4"/>
<path d="M49.0202 1064.18C46.639 1063.53 44.1845 1064.38 42.2304 1065.87C40.2729 1067.36 38.7123 1069.57 38.1058 1071.86C37.4994 1074.16 37.7616 1076.86 38.7199 1079.14C39.6762 1081.41 41.3811 1083.39 43.7603 1084.03C46.1415 1084.68 48.596 1083.83 50.5501 1082.35C52.5076 1080.85 54.0682 1078.65 54.6747 1076.35C55.2811 1074.06 55.0189 1071.36 54.0606 1069.08C53.1043 1066.8 51.3994 1064.83 49.0202 1064.18Z" fill="#FFE9D9" fill-opacity="0.4"/>
<path d="M17.2803 1072.12C16.6598 1069.77 15.0628 1067.51 13.0593 1065.98C11.0592 1064.46 8.54923 1063.59 6.11574 1064.26C3.68425 1064.92 1.94025 1066.93 0.96138 1069.26C-0.0194517 1071.59 -0.287638 1074.36 0.332789 1076.71C0.953319 1079.05 2.55032 1081.31 4.55378 1082.84C6.55388 1084.36 9.06389 1085.23 11.4974 1084.57C13.9289 1083.91 15.6729 1081.89 16.6517 1079.56C17.6326 1077.23 17.9008 1074.46 17.2803 1072.12Z" fill="#FFE9D9" fill-opacity="0.4"/>
<path d="M27.3826 1076.53C27.41 1076.53 27.433 1076.53 27.4514 1076.54C27.4575 1076.54 27.4639 1076.53 27.4709 1076.53C27.4849 1076.53 27.5007 1076.53 27.5184 1076.53C27.5869 1076.53 27.6827 1076.53 27.8026 1076.53C28.0421 1076.53 28.3789 1076.55 28.7856 1076.6C29.5983 1076.72 30.6983 1077 31.8587 1077.64C34.2112 1078.96 36.6826 1081.73 37.6157 1087.39L37.625 1087.45V1087.51C37.625 1087.9 37.7221 1088.12 37.8324 1088.26C37.9513 1088.4 38.1496 1088.53 38.4853 1088.65C38.8243 1088.77 39.2457 1088.84 39.759 1088.92C39.9288 1088.94 40.1124 1088.97 40.3041 1088.99C40.6622 1089.04 41.0491 1089.09 41.4256 1089.15C42.6052 1089.35 43.9385 1089.68 45.0785 1090.57C46.2386 1091.47 47.1197 1092.87 47.52 1095.04C47.9168 1097.19 47.7291 1098.96 47.1229 1100.41C46.5163 1101.85 45.5109 1102.91 44.3533 1103.64C42.0724 1105.08 39.15 1105.28 37.2981 1104.69C35.7284 1104.18 33.2869 1103.88 31.1855 1103.7C30.1455 1103.61 29.2072 1103.56 28.5289 1103.53C28.1899 1103.51 27.9163 1103.5 27.7279 1103.49C27.6337 1103.49 27.5608 1103.49 27.5117 1103.48L27.4563 1103.48L27.402 1103.48C27.3528 1103.49 27.2797 1103.49 27.1852 1103.49C26.9963 1103.5 26.7219 1103.51 26.3821 1103.53C25.702 1103.56 24.7614 1103.61 23.7191 1103.7C21.6128 1103.88 19.1667 1104.18 17.5972 1104.69C15.7442 1105.28 12.8207 1105.08 10.5382 1103.64C9.37954 1102.91 8.37281 1101.85 7.7647 1100.41C7.15694 1098.97 6.96748 1097.19 7.36279 1095.04C7.76106 1092.88 8.59862 1091.48 9.71057 1090.58C10.8068 1089.69 12.09 1089.35 13.2388 1089.15C13.6166 1089.09 14.0037 1089.04 14.364 1088.99C14.5418 1088.96 14.7131 1088.94 14.8735 1088.92C15.3817 1088.84 15.8112 1088.77 16.1703 1088.65C16.5256 1088.53 16.7704 1088.39 16.9387 1088.21C17.0989 1088.04 17.2325 1087.8 17.2903 1087.41C18.1007 1081.85 20.5835 1079.09 22.9648 1077.74C24.139 1077.08 25.2599 1076.78 26.0888 1076.64C26.5039 1076.57 26.8482 1076.55 27.0928 1076.54C27.2152 1076.53 27.313 1076.53 27.3826 1076.53Z" fill="#FFE9D9" fill-opacity="0.4"/>
<path d="M82.4633 972C79.9538 972 77.7653 973.514 76.2365 975.528C74.7038 977.548 73.7475 980.176 73.7475 982.627C73.7475 985.079 74.7038 987.707 76.2365 989.727C77.7653 991.741 79.9538 993.255 82.4633 993.255C84.9728 993.255 87.1613 991.741 88.6902 989.727C90.2229 987.707 91.1792 985.079 91.1792 982.627C91.1792 980.176 90.2229 977.548 88.6902 975.528C87.1613 973.514 84.9728 972 82.4633 972Z" fill="#FFE9D9" fill-opacity="0.4"/>
<path d="M104.02 983.181C101.639 982.534 99.1845 983.38 97.2304 984.868C95.2729 986.359 93.7123 988.568 93.1058 990.863C92.4994 993.157 92.7616 995.859 93.7199 998.138C94.6762 1000.41 96.3811 1002.39 98.7603 1003.03C101.142 1003.68 103.596 1002.83 105.55 1001.35C107.508 999.854 109.068 997.645 109.675 995.351C110.281 993.057 110.019 990.355 109.061 988.076C108.104 985.801 106.399 983.827 104.02 983.181Z" fill="#FFE9D9" fill-opacity="0.4"/>
<path d="M72.2803 991.116C71.6598 988.768 70.0628 986.507 68.0593 984.981C66.0592 983.458 63.5492 982.594 61.1157 983.255C58.6842 983.915 56.9402 985.933 55.9614 988.261C54.9805 990.595 54.7124 993.359 55.3328 995.706C55.9533 998.054 57.5503 1000.31 59.5538 1001.84C61.5539 1003.36 64.0639 1004.23 66.4974 1003.57C68.9289 1002.91 70.6729 1000.89 71.6517 998.561C72.6326 996.228 72.9008 993.463 72.2803 991.116Z" fill="#FFE9D9" fill-opacity="0.4"/>
<path d="M82.3826 995.534C82.41 995.534 82.433 995.535 82.4514 995.536C82.4575 995.535 82.4639 995.535 82.4709 995.534C82.4849 995.534 82.5007 995.533 82.5184 995.532C82.5869 995.529 82.6827 995.526 82.8026 995.528C83.0421 995.53 83.3789 995.547 83.7856 995.605C84.5983 995.719 85.6983 995.996 86.8587 996.645C89.2112 997.96 91.6826 1000.73 92.6157 1006.39L92.625 1006.45V1006.51C92.625 1006.9 92.7221 1007.12 92.8324 1007.26C92.9513 1007.4 93.1496 1007.53 93.4853 1007.65C93.8243 1007.77 94.2457 1007.84 94.759 1007.92C94.9288 1007.94 95.1124 1007.97 95.3041 1007.99C95.6622 1008.04 96.0491 1008.09 96.4256 1008.15C97.6052 1008.35 98.9385 1008.68 100.078 1009.57C101.239 1010.47 102.12 1011.87 102.52 1014.04C102.917 1016.19 102.729 1017.96 102.123 1019.41C101.516 1020.85 100.511 1021.91 99.3533 1022.64C97.0724 1024.08 94.15 1024.28 92.2981 1023.69C90.7284 1023.18 88.2869 1022.88 86.1855 1022.7C85.1455 1022.61 84.2072 1022.56 83.5289 1022.53C83.1899 1022.51 82.9163 1022.5 82.7279 1022.49C82.6337 1022.49 82.5608 1022.49 82.5117 1022.48L82.4563 1022.48L82.402 1022.48C82.3528 1022.49 82.2797 1022.49 82.1852 1022.49C81.9963 1022.5 81.7219 1022.51 81.3821 1022.53C80.702 1022.56 79.7614 1022.61 78.7191 1022.7C76.6128 1022.88 74.1667 1023.18 72.5972 1023.69C70.7442 1024.28 67.8207 1024.08 65.5382 1022.64C64.3795 1021.91 63.3728 1020.85 62.7647 1019.41C62.1569 1017.97 61.9675 1016.19 62.3628 1014.04C62.7611 1011.88 63.5986 1010.48 64.7106 1009.58C65.8068 1008.69 67.09 1008.35 68.2388 1008.15C68.6166 1008.09 69.0037 1008.04 69.364 1007.99C69.5418 1007.96 69.7131 1007.94 69.8735 1007.92C70.3817 1007.84 70.8112 1007.77 71.1703 1007.65C71.5256 1007.53 71.7704 1007.39 71.9387 1007.21C72.0989 1007.04 72.2325 1006.8 72.2903 1006.41C73.1007 1000.85 75.5835 998.086 77.9648 996.741C79.139 996.079 80.2599 995.778 81.0888 995.642C81.5039 995.575 81.8482 995.548 82.0928 995.539C82.2152 995.534 82.313 995.533 82.3826 995.534Z" fill="#FFE9D9" fill-opacity="0.4"/>
<path d="M27.4633 891C24.9538 891 22.7653 892.514 21.2365 894.528C19.7038 896.548 18.7475 899.176 18.7475 901.627C18.7475 904.079 19.7038 906.707 21.2365 908.727C22.7653 910.741 24.9538 912.255 27.4633 912.255C29.9728 912.255 32.1613 910.741 33.6902 908.727C35.2229 906.707 36.1792 904.079 36.1792 901.627C36.1792 899.176 35.2229 896.548 33.6902 894.528C32.1613 892.514 29.9728 891 27.4633 891Z" fill="#FFE9D9" fill-opacity="0.4"/>
<path d="M49.0202 902.181C46.639 901.534 44.1845 902.38 42.2304 903.868C40.2729 905.359 38.7123 907.568 38.1058 909.863C37.4994 912.157 37.7616 914.859 38.7199 917.138C39.6762 919.413 41.3811 921.386 43.7603 922.033C46.1415 922.679 48.596 921.834 50.5501 920.345C52.5076 918.854 54.0682 916.645 54.6747 914.351C55.2811 912.057 55.0189 909.355 54.0606 907.076C53.1043 904.801 51.3994 902.827 49.0202 902.181Z" fill="#FFE9D9" fill-opacity="0.4"/>
<path d="M17.2803 910.116C16.6598 907.768 15.0628 905.507 13.0593 903.981C11.0592 902.458 8.54923 901.594 6.11574 902.255C3.68425 902.915 1.94025 904.933 0.96138 907.261C-0.0194517 909.595 -0.287638 912.359 0.332789 914.706C0.953319 917.054 2.55032 919.315 4.55378 920.841C6.55388 922.364 9.06389 923.228 11.4974 922.567C13.9289 921.907 15.6729 919.89 16.6517 917.561C17.6326 915.228 17.9008 912.463 17.2803 910.116Z" fill="#FFE9D9" fill-opacity="0.4"/>
<path d="M27.3826 914.534C27.41 914.534 27.433 914.535 27.4514 914.536C27.4575 914.535 27.4639 914.535 27.4709 914.534C27.4849 914.534 27.5007 914.533 27.5184 914.532C27.5869 914.529 27.6827 914.526 27.8026 914.528C28.0421 914.53 28.3789 914.547 28.7856 914.605C29.5983 914.719 30.6983 914.996 31.8587 915.645C34.2112 916.96 36.6826 919.728 37.6157 925.394L37.625 925.45V925.508C37.625 925.904 37.7221 926.119 37.8324 926.255C37.9513 926.402 38.1496 926.535 38.4853 926.649C38.8243 926.765 39.2457 926.843 39.759 926.917C39.9288 926.941 40.1124 926.966 40.3041 926.991C40.6622 927.038 41.0491 927.089 41.4256 927.151C42.6052 927.346 43.9385 927.683 45.0785 928.568C46.2386 929.468 47.1197 930.87 47.52 933.042C47.9168 935.186 47.7291 936.965 47.1229 938.407C46.5163 939.85 45.5109 940.907 44.3533 941.637C42.0724 943.076 39.15 943.279 37.2981 942.686C35.7284 942.183 33.2869 941.878 31.1855 941.701C30.1455 941.614 29.2072 941.559 28.5289 941.526C28.1899 941.51 27.9163 941.499 27.7279 941.492C27.6337 941.489 27.5608 941.486 27.5117 941.485L27.4563 941.483L27.402 941.485C27.3528 941.486 27.2797 941.489 27.1852 941.492C26.9963 941.499 26.7219 941.51 26.3821 941.526C25.702 941.559 24.7614 941.614 23.7191 941.701C21.6128 941.878 19.1667 942.183 17.5972 942.686C15.7442 943.283 12.8207 943.079 10.5382 941.64C9.37954 940.909 8.37281 939.851 7.7647 938.408C7.15694 936.966 6.96748 935.186 7.36279 933.042C7.76106 930.882 8.59862 929.481 9.71057 928.578C10.8068 927.687 12.09 927.348 13.2388 927.152C13.6166 927.088 14.0037 927.036 14.364 926.987C14.5418 926.963 14.7131 926.94 14.8735 926.917C15.3817 926.844 15.8112 926.765 16.1703 926.647C16.5256 926.53 16.7704 926.387 16.9387 926.212C17.0989 926.044 17.2325 925.803 17.2903 925.406C18.1007 919.853 20.5835 917.086 22.9648 915.741C24.139 915.079 25.2599 914.778 26.0888 914.642C26.5039 914.575 26.8482 914.548 27.0928 914.539C27.2152 914.534 27.313 914.533 27.3826 914.534Z" fill="#FFE9D9" fill-opacity="0.4"/>
<path d="M82.4633 810C79.9538 810 77.7653 811.514 76.2365 813.528C74.7038 815.548 73.7475 818.176 73.7475 820.627C73.7475 823.079 74.7038 825.707 76.2365 827.727C77.7653 829.741 79.9538 831.255 82.4633 831.255C84.9728 831.255 87.1613 829.741 88.6902 827.727C90.2229 825.707 91.1792 823.079 91.1792 820.627C91.1792 818.176 90.2229 815.548 88.6902 813.528C87.1613 811.514 84.9728 810 82.4633 810Z" fill="#FFE9D9" fill-opacity="0.4"/>
<path d="M104.02 821.181C101.639 820.534 99.1845 821.38 97.2304 822.868C95.2729 824.359 93.7123 826.568 93.1058 828.863C92.4994 831.157 92.7616 833.859 93.7199 836.138C94.6762 838.413 96.3811 840.386 98.7603 841.033C101.142 841.679 103.596 840.834 105.55 839.345C107.508 837.854 109.068 835.645 109.675 833.351C110.281 831.057 110.019 828.355 109.061 826.076C108.104 823.801 106.399 821.827 104.02 821.181Z" fill="#FFE9D9" fill-opacity="0.4"/>
<path d="M72.2803 829.116C71.6598 826.768 70.0628 824.507 68.0593 822.981C66.0592 821.458 63.5492 820.594 61.1157 821.255C58.6842 821.915 56.9402 823.933 55.9614 826.261C54.9805 828.595 54.7124 831.359 55.3328 833.706C55.9533 836.054 57.5503 838.315 59.5538 839.841C61.5539 841.364 64.0639 842.228 66.4974 841.567C68.9289 840.907 70.6729 838.89 71.6517 836.561C72.6326 834.228 72.9008 831.463 72.2803 829.116Z" fill="#FFE9D9" fill-opacity="0.4"/>
<path d="M82.3826 833.534C82.41 833.534 82.433 833.535 82.4514 833.536C82.4575 833.535 82.4639 833.535 82.4709 833.534C82.4849 833.534 82.5007 833.533 82.5184 833.532C82.5869 833.529 82.6827 833.526 82.8026 833.528C83.0421 833.53 83.3789 833.547 83.7856 833.605C84.5983 833.719 85.6983 833.996 86.8587 834.645C89.2112 835.96 91.6826 838.728 92.6157 844.394L92.625 844.45V844.508C92.625 844.904 92.7221 845.119 92.8324 845.255C92.9513 845.402 93.1496 845.535 93.4853 845.649C93.8243 845.765 94.2457 845.843 94.759 845.917C94.9288 845.941 95.1124 845.966 95.3041 845.991C95.6622 846.038 96.0491 846.089 96.4256 846.151C97.6052 846.346 98.9385 846.683 100.078 847.568C101.239 848.468 102.12 849.87 102.52 852.042C102.917 854.186 102.729 855.965 102.123 857.407C101.516 858.85 100.511 859.907 99.3533 860.637C97.0724 862.076 94.15 862.279 92.2981 861.686C90.7284 861.183 88.2869 860.878 86.1855 860.701C85.1455 860.614 84.2072 860.559 83.5289 860.526C83.1899 860.51 82.9163 860.499 82.7279 860.492C82.6337 860.489 82.5608 860.486 82.5117 860.485L82.4563 860.483L82.402 860.485C82.3528 860.486 82.2797 860.489 82.1852 860.492C81.9963 860.499 81.7219 860.51 81.3821 860.526C80.702 860.559 79.7614 860.614 78.7191 860.701C76.6128 860.878 74.1667 861.183 72.5972 861.686C70.7442 862.283 67.8207 862.079 65.5382 860.64C64.3795 859.909 63.3728 858.851 62.7647 857.408C62.1569 855.966 61.9675 854.186 62.3628 852.042C62.7611 849.882 63.5986 848.481 64.7106 847.578C65.8068 846.687 67.09 846.348 68.2388 846.152C68.6166 846.088 69.0037 846.036 69.364 845.987C69.5418 845.963 69.7131 845.94 69.8735 845.917C70.3817 845.844 70.8112 845.765 71.1703 845.647C71.5256 845.53 71.7704 845.387 71.9387 845.212C72.0989 845.044 72.2325 844.803 72.2903 844.406C73.1007 838.853 75.5835 836.086 77.9648 834.741C79.139 834.079 80.2599 833.778 81.0888 833.642C81.5039 833.575 81.8482 833.548 82.0928 833.539C82.2152 833.534 82.313 833.533 82.3826 833.534Z" fill="#FFE9D9" fill-opacity="0.4"/>
<path d="M27.4633 729C24.9538 729 22.7653 730.514 21.2365 732.528C19.7038 734.548 18.7475 737.176 18.7475 739.627C18.7475 742.079 19.7038 744.707 21.2365 746.727C22.7653 748.741 24.9538 750.255 27.4633 750.255C29.9728 750.255 32.1613 748.741 33.6902 746.727C35.2229 744.707 36.1792 742.079 36.1792 739.627C36.1792 737.176 35.2229 734.548 33.6902 732.528C32.1613 730.514 29.9728 729 27.4633 729Z" fill="#FFE9D9" fill-opacity="0.4"/>
<path d="M49.0202 740.181C46.639 739.534 44.1845 740.38 42.2304 741.868C40.2729 743.359 38.7123 745.568 38.1058 747.863C37.4994 750.157 37.7616 752.859 38.7199 755.138C39.6762 757.413 41.3811 759.386 43.7603 760.033C46.1415 760.679 48.596 759.834 50.5501 758.345C52.5076 756.854 54.0682 754.645 54.6747 752.351C55.2811 750.057 55.0189 747.355 54.0606 745.076C53.1043 742.801 51.3994 740.827 49.0202 740.181Z" fill="#FFE9D9" fill-opacity="0.4"/>
<path d="M17.2803 748.116C16.6598 745.768 15.0628 743.507 13.0593 741.981C11.0592 740.458 8.54923 739.594 6.11574 740.255C3.68425 740.915 1.94025 742.933 0.96138 745.261C-0.0194517 747.595 -0.287638 750.359 0.332789 752.706C0.953319 755.054 2.55032 757.315 4.55378 758.841C6.55388 760.364 9.06389 761.228 11.4974 760.567C13.9289 759.907 15.6729 757.89 16.6517 755.561C17.6326 753.228 17.9008 750.463 17.2803 748.116Z" fill="#FFE9D9" fill-opacity="0.4"/>
<path d="M27.3826 752.534C27.41 752.534 27.433 752.535 27.4514 752.536C27.4575 752.535 27.4639 752.535 27.4709 752.534C27.4849 752.534 27.5007 752.533 27.5184 752.532C27.5869 752.529 27.6827 752.526 27.8026 752.528C28.0421 752.53 28.3789 752.547 28.7856 752.605C29.5983 752.719 30.6983 752.996 31.8587 753.645C34.2112 754.96 36.6826 757.728 37.6157 763.394L37.625 763.45V763.508C37.625 763.904 37.7221 764.119 37.8324 764.255C37.9513 764.402 38.1496 764.535 38.4853 764.649C38.8243 764.765 39.2457 764.843 39.759 764.917C39.9288 764.941 40.1124 764.966 40.3041 764.991C40.6622 765.038 41.0491 765.089 41.4256 765.151C42.6052 765.346 43.9385 765.683 45.0785 766.568C46.2386 767.468 47.1197 768.87 47.52 771.042C47.9168 773.186 47.7291 774.965 47.1229 776.407C46.5163 777.85 45.5109 778.907 44.3533 779.637C42.0724 781.076 39.15 781.279 37.2981 780.686C35.7284 780.183 33.2869 779.878 31.1855 779.701C30.1455 779.614 29.2072 779.559 28.5289 779.526C28.1899 779.51 27.9163 779.499 27.7279 779.492C27.6337 779.489 27.5608 779.486 27.5117 779.485L27.4563 779.483L27.402 779.485C27.3528 779.486 27.2797 779.489 27.1852 779.492C26.9963 779.499 26.7219 779.51 26.3821 779.526C25.702 779.559 24.7614 779.614 23.7191 779.701C21.6128 779.878 19.1667 780.183 17.5972 780.686C15.7442 781.283 12.8207 781.079 10.5382 779.64C9.37954 778.909 8.37281 777.851 7.7647 776.408C7.15694 774.966 6.96748 773.186 7.36279 771.042C7.76106 768.882 8.59862 767.481 9.71057 766.578C10.8068 765.687 12.09 765.348 13.2388 765.152C13.6166 765.088 14.0037 765.036 14.364 764.987C14.5418 764.963 14.7131 764.94 14.8735 764.917C15.3817 764.844 15.8112 764.765 16.1703 764.647C16.5256 764.53 16.7704 764.387 16.9387 764.212C17.0989 764.044 17.2325 763.803 17.2903 763.406C18.1007 757.853 20.5835 755.086 22.9648 753.741C24.139 753.079 25.2599 752.778 26.0888 752.642C26.5039 752.575 26.8482 752.548 27.0928 752.539C27.2152 752.534 27.313 752.533 27.3826 752.534Z" fill="#FFE9D9" fill-opacity="0.4"/>
<path d="M82.4633 648C79.9538 648 77.7653 649.514 76.2365 651.528C74.7038 653.548 73.7475 656.176 73.7475 658.627C73.7475 661.079 74.7038 663.707 76.2365 665.727C77.7653 667.741 79.9538 669.255 82.4633 669.255C84.9728 669.255 87.1613 667.741 88.6902 665.727C90.2229 663.707 91.1792 661.079 91.1792 658.627C91.1792 656.176 90.2229 653.548 88.6902 651.528C87.1613 649.514 84.9728 648 82.4633 648Z" fill="#FFE9D9" fill-opacity="0.4"/>
<path d="M104.02 659.181C101.639 658.534 99.1845 659.38 97.2304 660.868C95.2729 662.359 93.7123 664.568 93.1058 666.863C92.4994 669.157 92.7616 671.859 93.7199 674.138C94.6762 676.413 96.3811 678.386 98.7603 679.033C101.142 679.679 103.596 678.834 105.55 677.345C107.508 675.854 109.068 673.645 109.675 671.351C110.281 669.057 110.019 666.355 109.061 664.076C108.104 661.801 106.399 659.827 104.02 659.181Z" fill="#FFE9D9" fill-opacity="0.4"/>
<path d="M72.2803 667.116C71.6598 664.768 70.0628 662.507 68.0593 660.981C66.0592 659.458 63.5492 658.594 61.1157 659.255C58.6842 659.915 56.9402 661.933 55.9614 664.261C54.9805 666.595 54.7124 669.359 55.3328 671.706C55.9533 674.054 57.5503 676.315 59.5538 677.841C61.5539 679.364 64.0639 680.228 66.4974 679.567C68.9289 678.907 70.6729 676.89 71.6517 674.561C72.6326 672.228 72.9008 669.463 72.2803 667.116Z" fill="#FFE9D9" fill-opacity="0.4"/>
<path d="M82.3826 671.534C82.41 671.534 82.433 671.535 82.4514 671.536C82.4575 671.535 82.4639 671.535 82.4709 671.534C82.4849 671.534 82.5007 671.533 82.5184 671.532C82.5869 671.529 82.6827 671.526 82.8026 671.528C83.0421 671.53 83.3789 671.547 83.7856 671.605C84.5983 671.719 85.6983 671.996 86.8587 672.645C89.2112 673.96 91.6826 676.728 92.6157 682.394L92.625 682.45V682.508C92.625 682.904 92.7221 683.119 92.8324 683.255C92.9513 683.402 93.1496 683.535 93.4853 683.649C93.8243 683.765 94.2457 683.843 94.759 683.917C94.9288 683.941 95.1124 683.966 95.3041 683.991C95.6622 684.038 96.0491 684.089 96.4256 684.151C97.6052 684.346 98.9385 684.683 100.078 685.568C101.239 686.468 102.12 687.87 102.52 690.042C102.917 692.186 102.729 693.965 102.123 695.407C101.516 696.85 100.511 697.907 99.3533 698.637C97.0724 700.076 94.15 700.279 92.2981 699.686C90.7284 699.183 88.2869 698.878 86.1855 698.701C85.1455 698.614 84.2072 698.559 83.5289 698.526C83.1899 698.51 82.9163 698.499 82.7279 698.492C82.6337 698.489 82.5608 698.486 82.5117 698.485L82.4563 698.483L82.402 698.485C82.3528 698.486 82.2797 698.489 82.1852 698.492C81.9963 698.499 81.7219 698.51 81.3821 698.526C80.702 698.559 79.7614 698.614 78.7191 698.701C76.6128 698.878 74.1667 699.183 72.5972 699.686C70.7442 700.283 67.8207 700.079 65.5382 698.64C64.3795 697.909 63.3728 696.851 62.7647 695.408C62.1569 693.966 61.9675 692.186 62.3628 690.042C62.7611 687.882 63.5986 686.481 64.7106 685.578C65.8068 684.687 67.09 684.348 68.2388 684.152C68.6166 684.088 69.0037 684.036 69.364 683.987C69.5418 683.963 69.7131 683.94 69.8735 683.917C70.3817 683.844 70.8112 683.765 71.1703 683.647C71.5256 683.53 71.7704 683.387 71.9387 683.212C72.0989 683.044 72.2325 682.803 72.2903 682.406C73.1007 676.853 75.5835 674.086 77.9648 672.741C79.139 672.079 80.2599 671.778 81.0888 671.642C81.5039 671.575 81.8482 671.548 82.0928 671.539C82.2152 671.534 82.313 671.533 82.3826 671.534Z" fill="#FFE9D9" fill-opacity="0.4"/>
<path d="M27.4633 567C24.9538 567 22.7653 568.514 21.2365 570.528C19.7038 572.548 18.7475 575.176 18.7475 577.627C18.7475 580.079 19.7038 582.707 21.2365 584.727C22.7653 586.741 24.9538 588.255 27.4633 588.255C29.9728 588.255 32.1613 586.741 33.6902 584.727C35.2229 582.707 36.1792 580.079 36.1792 577.627C36.1792 575.176 35.2229 572.548 33.6902 570.528C32.1613 568.514 29.9728 567 27.4633 567Z" fill="#FFE9D9" fill-opacity="0.4"/>
<path d="M49.0202 578.181C46.639 577.534 44.1845 578.38 42.2304 579.868C40.2729 581.359 38.7123 583.568 38.1058 585.863C37.4994 588.157 37.7616 590.859 38.7199 593.138C39.6762 595.413 41.3811 597.386 43.7603 598.033C46.1415 598.679 48.596 597.834 50.5501 596.345C52.5076 594.854 54.0682 592.645 54.6747 590.351C55.2811 588.057 55.0189 585.355 54.0606 583.076C53.1043 580.801 51.3994 578.827 49.0202 578.181Z" fill="#FFE9D9" fill-opacity="0.4"/>
<path d="M17.2803 586.116C16.6598 583.768 15.0628 581.507 13.0593 579.981C11.0592 578.458 8.54923 577.594 6.11574 578.255C3.68425 578.915 1.94025 580.933 0.96138 583.261C-0.0194517 585.595 -0.287638 588.359 0.332789 590.706C0.953319 593.054 2.55032 595.315 4.55378 596.841C6.55388 598.364 9.06389 599.228 11.4974 598.567C13.9289 597.907 15.6729 595.89 16.6517 593.561C17.6326 591.228 17.9008 588.463 17.2803 586.116Z" fill="#FFE9D9" fill-opacity="0.4"/>
<path d="M27.3826 590.534C27.41 590.534 27.433 590.535 27.4514 590.536C27.4575 590.535 27.4639 590.535 27.4709 590.534C27.4849 590.534 27.5007 590.533 27.5184 590.532C27.5869 590.529 27.6827 590.526 27.8026 590.528C28.0421 590.53 28.3789 590.547 28.7856 590.605C29.5983 590.719 30.6983 590.996 31.8587 591.645C34.2112 592.96 36.6826 595.728 37.6157 601.394L37.625 601.45V601.508C37.625 601.904 37.7221 602.119 37.8324 602.255C37.9513 602.402 38.1496 602.535 38.4853 602.649C38.8243 602.765 39.2457 602.843 39.759 602.917C39.9288 602.941 40.1124 602.966 40.3041 602.991C40.6622 603.038 41.0491 603.089 41.4256 603.151C42.6052 603.346 43.9385 603.683 45.0785 604.568C46.2386 605.468 47.1197 606.87 47.52 609.042C47.9168 611.186 47.7291 612.965 47.1229 614.407C46.5163 615.85 45.5109 616.907 44.3533 617.637C42.0724 619.076 39.15 619.279 37.2981 618.686C35.7284 618.183 33.2869 617.878 31.1855 617.701C30.1455 617.614 29.2072 617.559 28.5289 617.526C28.1899 617.51 27.9163 617.499 27.7279 617.492C27.6337 617.489 27.5608 617.486 27.5117 617.485L27.4563 617.483L27.402 617.485C27.3528 617.486 27.2797 617.489 27.1852 617.492C26.9963 617.499 26.7219 617.51 26.3821 617.526C25.702 617.559 24.7614 617.614 23.7191 617.701C21.6128 617.878 19.1667 618.183 17.5972 618.686C15.7442 619.283 12.8207 619.079 10.5382 617.64C9.37954 616.909 8.37281 615.851 7.7647 614.408C7.15694 612.966 6.96748 611.186 7.36279 609.042C7.76106 606.882 8.59862 605.481 9.71057 604.578C10.8068 603.687 12.09 603.348 13.2388 603.152C13.6166 603.088 14.0037 603.036 14.364 602.987C14.5418 602.963 14.7131 602.94 14.8735 602.917C15.3817 602.844 15.8112 602.765 16.1703 602.647C16.5256 602.53 16.7704 602.387 16.9387 602.212C17.0989 602.044 17.2325 601.803 17.2903 601.406C18.1007 595.853 20.5835 593.086 22.9648 591.741C24.139 591.079 25.2599 590.778 26.0888 590.642C26.5039 590.575 26.8482 590.548 27.0928 590.539C27.2152 590.534 27.313 590.533 27.3826 590.534Z" fill="#FFE9D9" fill-opacity="0.4"/>
<path d="M82.4633 486C79.9538 486 77.7653 487.514 76.2365 489.528C74.7038 491.548 73.7475 494.176 73.7475 496.627C73.7475 499.079 74.7038 501.707 76.2365 503.727C77.7653 505.741 79.9538 507.255 82.4633 507.255C84.9728 507.255 87.1613 505.741 88.6902 503.727C90.2229 501.707 91.1792 499.079 91.1792 496.627C91.1792 494.176 90.2229 491.548 88.6902 489.528C87.1613 487.514 84.9728 486 82.4633 486Z" fill="#FFE9D9" fill-opacity="0.4"/>
<path d="M104.02 497.181C101.639 496.534 99.1845 497.38 97.2304 498.868C95.2729 500.359 93.7123 502.568 93.1058 504.863C92.4994 507.157 92.7616 509.859 93.7199 512.138C94.6762 514.413 96.3811 516.386 98.7603 517.033C101.142 517.679 103.596 516.834 105.55 515.345C107.508 513.854 109.068 511.645 109.675 509.351C110.281 507.057 110.019 504.355 109.061 502.076C108.104 499.801 106.399 497.827 104.02 497.181Z" fill="#FFE9D9" fill-opacity="0.4"/>
<path d="M72.2803 505.116C71.6598 502.768 70.0628 500.507 68.0593 498.981C66.0592 497.458 63.5492 496.594 61.1157 497.255C58.6842 497.915 56.9402 499.933 55.9614 502.261C54.9805 504.595 54.7124 507.359 55.3328 509.706C55.9533 512.054 57.5503 514.315 59.5538 515.841C61.5539 517.364 64.0639 518.228 66.4974 517.567C68.9289 516.907 70.6729 514.89 71.6517 512.561C72.6326 510.228 72.9008 507.463 72.2803 505.116Z" fill="#FFE9D9" fill-opacity="0.4"/>
<path d="M82.3826 509.534C82.41 509.534 82.433 509.535 82.4514 509.536C82.4575 509.535 82.4639 509.535 82.4709 509.534C82.4849 509.534 82.5007 509.533 82.5184 509.532C82.5869 509.529 82.6827 509.526 82.8026 509.528C83.0421 509.53 83.3789 509.547 83.7856 509.605C84.5983 509.719 85.6983 509.996 86.8587 510.645C89.2112 511.96 91.6826 514.728 92.6157 520.394L92.625 520.45V520.508C92.625 520.904 92.7221 521.119 92.8324 521.255C92.9513 521.402 93.1496 521.535 93.4853 521.649C93.8243 521.765 94.2457 521.843 94.759 521.917C94.9288 521.941 95.1124 521.966 95.3041 521.991C95.6622 522.038 96.0491 522.089 96.4256 522.151C97.6052 522.346 98.9385 522.683 100.078 523.568C101.239 524.468 102.12 525.87 102.52 528.042C102.917 530.186 102.729 531.965 102.123 533.407C101.516 534.85 100.511 535.907 99.3533 536.637C97.0724 538.076 94.15 538.279 92.2981 537.686C90.7284 537.183 88.2869 536.878 86.1855 536.701C85.1455 536.614 84.2072 536.559 83.5289 536.526C83.1899 536.51 82.9163 536.499 82.7279 536.492C82.6337 536.489 82.5608 536.486 82.5117 536.485L82.4563 536.483L82.402 536.485C82.3528 536.486 82.2797 536.489 82.1852 536.492C81.9963 536.499 81.7219 536.51 81.3821 536.526C80.702 536.559 79.7614 536.614 78.7191 536.701C76.6128 536.878 74.1667 537.183 72.5972 537.686C70.7442 538.283 67.8207 538.079 65.5382 536.64C64.3795 535.909 63.3728 534.851 62.7647 533.408C62.1569 531.966 61.9675 530.186 62.3628 528.042C62.7611 525.882 63.5986 524.481 64.7106 523.578C65.8068 522.687 67.09 522.348 68.2388 522.152C68.6166 522.088 69.0037 522.036 69.364 521.987C69.5418 521.963 69.7131 521.94 69.8735 521.917C70.3817 521.844 70.8112 521.765 71.1703 521.647C71.5256 521.53 71.7704 521.387 71.9387 521.212C72.0989 521.044 72.2325 520.803 72.2903 520.406C73.1007 514.853 75.5835 512.086 77.9648 510.741C79.139 510.079 80.2599 509.778 81.0888 509.642C81.5039 509.575 81.8482 509.548 82.0928 509.539C82.2152 509.534 82.313 509.533 82.3826 509.534Z" fill="#FFE9D9" fill-opacity="0.4"/>
<path d="M27.4633 405C24.9538 405 22.7653 406.514 21.2365 408.528C19.7038 410.548 18.7475 413.176 18.7475 415.627C18.7475 418.079 19.7038 420.707 21.2365 422.727C22.7653 424.741 24.9538 426.255 27.4633 426.255C29.9728 426.255 32.1613 424.741 33.6902 422.727C35.2229 420.707 36.1792 418.079 36.1792 415.627C36.1792 413.176 35.2229 410.548 33.6902 408.528C32.1613 406.514 29.9728 405 27.4633 405Z" fill="#FFE9D9" fill-opacity="0.4"/>
<path d="M49.0202 416.181C46.639 415.534 44.1845 416.38 42.2304 417.868C40.2729 419.359 38.7123 421.568 38.1058 423.863C37.4994 426.157 37.7616 428.859 38.7199 431.138C39.6762 433.413 41.3811 435.386 43.7603 436.033C46.1415 436.679 48.596 435.834 50.5501 434.345C52.5076 432.854 54.0682 430.645 54.6747 428.351C55.2811 426.057 55.0189 423.355 54.0606 421.076C53.1043 418.801 51.3994 416.827 49.0202 416.181Z" fill="#FFE9D9" fill-opacity="0.4"/>
<path d="M17.2803 424.116C16.6598 421.768 15.0628 419.507 13.0593 417.981C11.0592 416.458 8.54923 415.594 6.11574 416.255C3.68425 416.915 1.94025 418.933 0.96138 421.261C-0.0194517 423.595 -0.287638 426.359 0.332789 428.706C0.953319 431.054 2.55032 433.315 4.55378 434.841C6.55388 436.364 9.06389 437.228 11.4974 436.567C13.9289 435.907 15.6729 433.89 16.6517 431.561C17.6326 429.228 17.9008 426.463 17.2803 424.116Z" fill="#FFE9D9" fill-opacity="0.4"/>
<path d="M27.3826 428.534C27.41 428.534 27.433 428.535 27.4514 428.536C27.4575 428.535 27.4639 428.535 27.4709 428.534C27.4849 428.534 27.5007 428.533 27.5184 428.532C27.5869 428.529 27.6827 428.526 27.8026 428.528C28.0421 428.53 28.3789 428.547 28.7856 428.605C29.5983 428.719 30.6983 428.996 31.8587 429.645C34.2112 430.96 36.6826 433.728 37.6157 439.394L37.625 439.45V439.508C37.625 439.904 37.7221 440.119 37.8324 440.255C37.9513 440.402 38.1496 440.535 38.4853 440.649C38.8243 440.765 39.2457 440.843 39.759 440.917C39.9288 440.941 40.1124 440.966 40.3041 440.991C40.6622 441.038 41.0491 441.089 41.4256 441.151C42.6052 441.346 43.9385 441.683 45.0785 442.568C46.2386 443.468 47.1197 444.87 47.52 447.042C47.9168 449.186 47.7291 450.965 47.1229 452.407C46.5163 453.85 45.5109 454.907 44.3533 455.637C42.0724 457.076 39.15 457.279 37.2981 456.686C35.7284 456.183 33.2869 455.878 31.1855 455.701C30.1455 455.614 29.2072 455.559 28.5289 455.526C28.1899 455.51 27.9163 455.499 27.7279 455.492C27.6337 455.489 27.5608 455.486 27.5117 455.485L27.4563 455.483L27.402 455.485C27.3528 455.486 27.2797 455.489 27.1852 455.492C26.9963 455.499 26.7219 455.51 26.3821 455.526C25.702 455.559 24.7614 455.614 23.7191 455.701C21.6128 455.878 19.1667 456.183 17.5972 456.686C15.7442 457.283 12.8207 457.079 10.5382 455.64C9.37954 454.909 8.37281 453.851 7.7647 452.408C7.15694 450.966 6.96748 449.186 7.36279 447.042C7.76106 444.882 8.59862 443.481 9.71057 442.578C10.8068 441.687 12.09 441.348 13.2388 441.152C13.6166 441.088 14.0037 441.036 14.364 440.987C14.5418 440.963 14.7131 440.94 14.8735 440.917C15.3817 440.844 15.8112 440.765 16.1703 440.647C16.5256 440.53 16.7704 440.387 16.9387 440.212C17.0989 440.044 17.2325 439.803 17.2903 439.406C18.1007 433.853 20.5835 431.086 22.9648 429.741C24.139 429.079 25.2599 428.778 26.0888 428.642C26.5039 428.575 26.8482 428.548 27.0928 428.539C27.2152 428.534 27.313 428.533 27.3826 428.534Z" fill="#FFE9D9" fill-opacity="0.4"/>
<path d="M82.4633 324C79.9538 324 77.7653 325.514 76.2365 327.528C74.7038 329.548 73.7475 332.176 73.7475 334.627C73.7475 337.079 74.7038 339.707 76.2365 341.727C77.7653 343.741 79.9538 345.255 82.4633 345.255C84.9728 345.255 87.1613 343.741 88.6902 341.727C90.2229 339.707 91.1792 337.079 91.1792 334.627C91.1792 332.176 90.2229 329.548 88.6902 327.528C87.1613 325.514 84.9728 324 82.4633 324Z" fill="#FFE9D9" fill-opacity="0.4"/>
<path d="M104.02 335.181C101.639 334.534 99.1845 335.38 97.2304 336.868C95.2729 338.359 93.7123 340.568 93.1058 342.863C92.4994 345.157 92.7616 347.859 93.7199 350.138C94.6762 352.413 96.3811 354.386 98.7603 355.033C101.142 355.679 103.596 354.834 105.55 353.345C107.508 351.854 109.068 349.645 109.675 347.351C110.281 345.057 110.019 342.355 109.061 340.076C108.104 337.801 106.399 335.827 104.02 335.181Z" fill="#FFE9D9" fill-opacity="0.4"/>
<path d="M72.2803 343.116C71.6598 340.768 70.0628 338.507 68.0593 336.981C66.0592 335.458 63.5492 334.594 61.1157 335.255C58.6842 335.915 56.9402 337.933 55.9614 340.261C54.9805 342.595 54.7124 345.359 55.3328 347.706C55.9533 350.054 57.5503 352.315 59.5538 353.841C61.5539 355.364 64.0639 356.228 66.4974 355.567C68.9289 354.907 70.6729 352.89 71.6517 350.561C72.6326 348.228 72.9008 345.463 72.2803 343.116Z" fill="#FFE9D9" fill-opacity="0.4"/>
<path d="M82.3826 347.534C82.41 347.534 82.433 347.535 82.4514 347.536C82.4575 347.535 82.4639 347.535 82.4709 347.534C82.4849 347.534 82.5007 347.533 82.5184 347.532C82.5869 347.529 82.6827 347.526 82.8026 347.528C83.0421 347.53 83.3789 347.547 83.7856 347.605C84.5983 347.719 85.6983 347.996 86.8587 348.645C89.2112 349.96 91.6826 352.728 92.6157 358.394L92.625 358.45V358.508C92.625 358.904 92.7221 359.119 92.8324 359.255C92.9513 359.402 93.1496 359.535 93.4853 359.649C93.8243 359.765 94.2457 359.843 94.759 359.917C94.9288 359.941 95.1124 359.966 95.3041 359.991C95.6622 360.038 96.0491 360.089 96.4256 360.151C97.6052 360.346 98.9385 360.683 100.078 361.568C101.239 362.468 102.12 363.87 102.52 366.042C102.917 368.186 102.729 369.965 102.123 371.407C101.516 372.85 100.511 373.907 99.3533 374.637C97.0724 376.076 94.15 376.279 92.2981 375.686C90.7284 375.183 88.2869 374.878 86.1855 374.701C85.1455 374.614 84.2072 374.559 83.5289 374.526C83.1899 374.51 82.9163 374.499 82.7279 374.492C82.6337 374.489 82.5608 374.486 82.5117 374.485L82.4563 374.483L82.402 374.485C82.3528 374.486 82.2797 374.489 82.1852 374.492C81.9963 374.499 81.7219 374.51 81.3821 374.526C80.702 374.559 79.7614 374.614 78.7191 374.701C76.6128 374.878 74.1667 375.183 72.5972 375.686C70.7442 376.283 67.8207 376.079 65.5382 374.64C64.3795 373.909 63.3728 372.851 62.7647 371.408C62.1569 369.966 61.9675 368.186 62.3628 366.042C62.7611 363.882 63.5986 362.481 64.7106 361.578C65.8068 360.687 67.09 360.348 68.2388 360.152C68.6166 360.088 69.0037 360.036 69.364 359.987C69.5418 359.963 69.7131 359.94 69.8735 359.917C70.3817 359.844 70.8112 359.765 71.1703 359.647C71.5256 359.53 71.7704 359.387 71.9387 359.212C72.0989 359.044 72.2325 358.803 72.2903 358.406C73.1007 352.853 75.5835 350.086 77.9648 348.741C79.139 348.079 80.2599 347.778 81.0888 347.642C81.5039 347.575 81.8482 347.548 82.0928 347.539C82.2152 347.534 82.313 347.533 82.3826 347.534Z" fill="#FFE9D9" fill-opacity="0.4"/>
<path d="M27.4633 243C24.9538 243 22.7653 244.514 21.2365 246.528C19.7038 248.548 18.7475 251.176 18.7475 253.627C18.7475 256.079 19.7038 258.707 21.2365 260.727C22.7653 262.741 24.9538 264.255 27.4633 264.255C29.9728 264.255 32.1613 262.741 33.6902 260.727C35.2229 258.707 36.1792 256.079 36.1792 253.627C36.1792 251.176 35.2229 248.548 33.6902 246.528C32.1613 244.514 29.9728 243 27.4633 243Z" fill="#FFE9D9" fill-opacity="0.4"/>
<path d="M49.0202 254.181C46.639 253.534 44.1845 254.38 42.2304 255.868C40.2729 257.359 38.7123 259.568 38.1058 261.863C37.4994 264.157 37.7616 266.859 38.7199 269.138C39.6762 271.413 41.3811 273.386 43.7603 274.033C46.1415 274.679 48.596 273.834 50.5501 272.345C52.5076 270.854 54.0682 268.645 54.6747 266.351C55.2811 264.057 55.0189 261.355 54.0606 259.076C53.1043 256.801 51.3994 254.827 49.0202 254.181Z" fill="#FFE9D9" fill-opacity="0.4"/>
<path d="M17.2803 262.116C16.6598 259.768 15.0628 257.507 13.0593 255.981C11.0592 254.458 8.54923 253.594 6.11574 254.255C3.68425 254.915 1.94025 256.933 0.96138 259.261C-0.0194517 261.595 -0.287638 264.359 0.332789 266.706C0.953319 269.054 2.55032 271.315 4.55378 272.841C6.55388 274.364 9.06389 275.228 11.4974 274.567C13.9289 273.907 15.6729 271.89 16.6517 269.561C17.6326 267.228 17.9008 264.463 17.2803 262.116Z" fill="#FFE9D9" fill-opacity="0.4"/>
<path d="M27.3826 266.534C27.41 266.534 27.433 266.535 27.4514 266.536C27.4575 266.535 27.4639 266.535 27.4709 266.534C27.4849 266.534 27.5007 266.533 27.5184 266.532C27.5869 266.529 27.6827 266.526 27.8026 266.528C28.0421 266.53 28.3789 266.547 28.7856 266.605C29.5983 266.719 30.6983 266.996 31.8587 267.645C34.2112 268.96 36.6826 271.728 37.6157 277.394L37.625 277.45V277.508C37.625 277.904 37.7221 278.119 37.8324 278.255C37.9513 278.402 38.1496 278.535 38.4853 278.649C38.8243 278.765 39.2457 278.843 39.759 278.917C39.9288 278.941 40.1124 278.966 40.3041 278.991C40.6622 279.038 41.0491 279.089 41.4256 279.151C42.6052 279.346 43.9385 279.683 45.0785 280.568C46.2386 281.468 47.1197 282.87 47.52 285.042C47.9168 287.186 47.7291 288.965 47.1229 290.407C46.5163 291.85 45.5109 292.907 44.3533 293.637C42.0724 295.076 39.15 295.279 37.2981 294.686C35.7284 294.183 33.2869 293.878 31.1855 293.701C30.1455 293.614 29.2072 293.559 28.5289 293.526C28.1899 293.51 27.9163 293.499 27.7279 293.492C27.6337 293.489 27.5608 293.486 27.5117 293.485L27.4563 293.483L27.402 293.485C27.3528 293.486 27.2797 293.489 27.1852 293.492C26.9963 293.499 26.7219 293.51 26.3821 293.526C25.702 293.559 24.7614 293.614 23.7191 293.701C21.6128 293.878 19.1667 294.183 17.5972 294.686C15.7442 295.283 12.8207 295.079 10.5382 293.64C9.37954 292.909 8.37281 291.851 7.7647 290.408C7.15694 288.966 6.96748 287.186 7.36279 285.042C7.76106 282.882 8.59862 281.481 9.71057 280.578C10.8068 279.687 12.09 279.348 13.2388 279.152C13.6166 279.088 14.0037 279.036 14.364 278.987C14.5418 278.963 14.7131 278.94 14.8735 278.917C15.3817 278.844 15.8112 278.765 16.1703 278.647C16.5256 278.53 16.7704 278.387 16.9387 278.212C17.0989 278.044 17.2325 277.803 17.2903 277.406C18.1007 271.853 20.5835 269.086 22.9648 267.741C24.139 267.079 25.2599 266.778 26.0888 266.642C26.5039 266.575 26.8482 266.548 27.0928 266.539C27.2152 266.534 27.313 266.533 27.3826 266.534Z" fill="#FFE9D9" fill-opacity="0.4"/>
<path d="M82.4633 162C79.9538 162 77.7653 163.514 76.2365 165.528C74.7038 167.548 73.7475 170.176 73.7475 172.627C73.7475 175.079 74.7038 177.707 76.2365 179.727C77.7653 181.741 79.9538 183.255 82.4633 183.255C84.9728 183.255 87.1613 181.741 88.6902 179.727C90.2229 177.707 91.1792 175.079 91.1792 172.627C91.1792 170.176 90.2229 167.548 88.6902 165.528C87.1613 163.514 84.9728 162 82.4633 162Z" fill="#FFE9D9" fill-opacity="0.4"/>
<path d="M104.02 173.181C101.639 172.534 99.1845 173.38 97.2304 174.868C95.2729 176.359 93.7123 178.568 93.1058 180.863C92.4994 183.157 92.7616 185.859 93.7199 188.138C94.6762 190.413 96.3811 192.386 98.7603 193.033C101.142 193.679 103.596 192.834 105.55 191.345C107.508 189.854 109.068 187.645 109.675 185.351C110.281 183.057 110.019 180.355 109.061 178.076C108.104 175.801 106.399 173.827 104.02 173.181Z" fill="#FFE9D9" fill-opacity="0.4"/>
<path d="M72.2803 181.116C71.6598 178.768 70.0628 176.507 68.0593 174.981C66.0592 173.458 63.5492 172.594 61.1157 173.255C58.6842 173.915 56.9402 175.933 55.9614 178.261C54.9805 180.595 54.7124 183.359 55.3328 185.706C55.9533 188.054 57.5503 190.315 59.5538 191.841C61.5539 193.364 64.0639 194.228 66.4974 193.567C68.9289 192.907 70.6729 190.89 71.6517 188.561C72.6326 186.228 72.9008 183.463 72.2803 181.116Z" fill="#FFE9D9" fill-opacity="0.4"/>
<path d="M82.3826 185.534C82.41 185.534 82.433 185.535 82.4514 185.536C82.4575 185.535 82.4639 185.535 82.4709 185.534C82.4849 185.534 82.5007 185.533 82.5184 185.532C82.5869 185.529 82.6827 185.526 82.8026 185.528C83.0421 185.53 83.3789 185.547 83.7856 185.605C84.5983 185.719 85.6983 185.996 86.8587 186.645C89.2112 187.96 91.6826 190.728 92.6157 196.394L92.625 196.45V196.508C92.625 196.904 92.7221 197.119 92.8324 197.255C92.9513 197.402 93.1496 197.535 93.4853 197.649C93.8243 197.765 94.2457 197.843 94.759 197.917C94.9288 197.941 95.1124 197.966 95.3041 197.991C95.6622 198.038 96.0491 198.089 96.4256 198.151C97.6052 198.346 98.9385 198.683 100.078 199.568C101.239 200.468 102.12 201.87 102.52 204.042C102.917 206.186 102.729 207.965 102.123 209.407C101.516 210.85 100.511 211.907 99.3533 212.637C97.0724 214.076 94.15 214.279 92.2981 213.686C90.7284 213.183 88.2869 212.878 86.1855 212.701C85.1455 212.614 84.2072 212.559 83.5289 212.526C83.1899 212.51 82.9163 212.499 82.7279 212.492C82.6337 212.489 82.5608 212.486 82.5117 212.485L82.4563 212.483L82.402 212.485C82.3528 212.486 82.2797 212.489 82.1852 212.492C81.9963 212.499 81.7219 212.51 81.3821 212.526C80.702 212.559 79.7614 212.614 78.7191 212.701C76.6128 212.878 74.1667 213.183 72.5972 213.686C70.7442 214.283 67.8207 214.079 65.5382 212.64C64.3795 211.909 63.3728 210.851 62.7647 209.408C62.1569 207.966 61.9675 206.186 62.3628 204.042C62.7611 201.882 63.5986 200.481 64.7106 199.578C65.8068 198.687 67.09 198.348 68.2388 198.152C68.6166 198.088 69.0037 198.036 69.364 197.987C69.5418 197.963 69.7131 197.94 69.8735 197.917C70.3817 197.844 70.8112 197.765 71.1703 197.647C71.5256 197.53 71.7704 197.387 71.9387 197.212C72.0989 197.044 72.2325 196.803 72.2903 196.406C73.1007 190.853 75.5835 188.086 77.9648 186.741C79.139 186.079 80.2599 185.778 81.0888 185.642C81.5039 185.575 81.8482 185.548 82.0928 185.539C82.2152 185.534 82.313 185.533 82.3826 185.534Z" fill="#FFE9D9" fill-opacity="0.4"/>
<path d="M27.4633 81C24.9538 81 22.7653 82.5137 21.2365 84.5283C19.7038 86.548 18.7475 89.1755 18.7475 91.6274C18.7475 94.0793 19.7038 96.7068 21.2365 98.7265C22.7653 100.741 24.9538 102.255 27.4633 102.255C29.9728 102.255 32.1613 100.741 33.6902 98.7265C35.2229 96.7068 36.1792 94.0793 36.1792 91.6274C36.1792 89.1755 35.2229 86.548 33.6902 84.5283C32.1613 82.5137 29.9728 81 27.4633 81Z" fill="#FFE9D9" fill-opacity="0.4"/>
<path d="M49.0202 92.1811C46.639 91.5343 44.1845 92.3801 42.2304 93.8685C40.2729 95.3594 38.7123 97.5684 38.1058 99.8629C37.4994 102.157 37.7616 104.859 38.7199 107.138C39.6762 109.413 41.3811 111.386 43.7603 112.033C46.1415 112.679 48.596 111.834 50.5501 110.345C52.5076 108.854 54.0682 106.645 54.6747 104.351C55.2811 102.057 55.0189 99.3552 54.0606 97.0755C53.1043 94.8005 51.3994 92.8273 49.0202 92.1811Z" fill="#FFE9D9" fill-opacity="0.4"/>
<path d="M17.2803 100.116C16.6598 97.7682 15.0628 95.5074 13.0593 93.9814C11.0592 92.458 8.54923 91.5941 6.11574 92.255C3.68425 92.9155 1.94025 94.9326 0.96138 97.2612C-0.0194517 99.5945 -0.287638 102.359 0.332789 104.706C0.953319 107.054 2.55032 109.315 4.55378 110.841C6.55388 112.364 9.06389 113.228 11.4974 112.567C13.9289 111.907 15.6729 109.89 16.6517 107.561C17.6326 105.228 17.9008 102.463 17.2803 100.116Z" fill="#FFE9D9" fill-opacity="0.4"/>
<path d="M27.3826 104.534C27.41 104.534 27.433 104.535 27.4514 104.536C27.4575 104.535 27.4639 104.535 27.4709 104.534C27.4849 104.534 27.5007 104.533 27.5184 104.532C27.5869 104.529 27.6827 104.526 27.8026 104.528C28.0421 104.53 28.3789 104.547 28.7856 104.605C29.5983 104.719 30.6983 104.996 31.8587 105.645C34.2112 106.96 36.6826 109.728 37.6157 115.394L37.625 115.45V115.508C37.625 115.904 37.7221 116.119 37.8324 116.255C37.9513 116.402 38.1496 116.535 38.4853 116.649C38.8243 116.765 39.2457 116.843 39.759 116.917C39.9288 116.941 40.1124 116.966 40.3041 116.991C40.6622 117.038 41.0491 117.089 41.4256 117.151C42.6052 117.346 43.9385 117.683 45.0785 118.568C46.2386 119.468 47.1197 120.87 47.52 123.042C47.9168 125.186 47.7291 126.965 47.1229 128.407C46.5163 129.85 45.5109 130.907 44.3533 131.637C42.0724 133.076 39.15 133.279 37.2981 132.686C35.7284 132.183 33.2869 131.878 31.1855 131.701C30.1455 131.614 29.2072 131.559 28.5289 131.526C28.1899 131.51 27.9163 131.499 27.7279 131.492C27.6337 131.489 27.5608 131.486 27.5117 131.485L27.4563 131.483L27.402 131.485C27.3528 131.486 27.2797 131.489 27.1852 131.492C26.9963 131.499 26.7219 131.51 26.3821 131.526C25.702 131.559 24.7614 131.614 23.7191 131.701C21.6128 131.878 19.1667 132.183 17.5972 132.686C15.7442 133.283 12.8207 133.079 10.5382 131.64C9.37954 130.909 8.37281 129.851 7.7647 128.408C7.15694 126.966 6.96748 125.186 7.36279 123.042C7.76106 120.882 8.59862 119.481 9.71057 118.578C10.8068 117.687 12.09 117.348 13.2388 117.152C13.6166 117.088 14.0037 117.036 14.364 116.987C14.5418 116.963 14.7131 116.94 14.8735 116.917C15.3817 116.844 15.8112 116.765 16.1703 116.647C16.5256 116.53 16.7704 116.387 16.9387 116.212C17.0989 116.044 17.2325 115.803 17.2903 115.406C18.1007 109.853 20.5835 107.086 22.9648 105.741C24.139 105.079 25.2599 104.778 26.0888 104.642C26.5039 104.575 26.8482 104.548 27.0928 104.539C27.2152 104.534 27.313 104.533 27.3826 104.534Z" fill="#FFE9D9" fill-opacity="0.4"/>
<path d="M82.4633 0C79.9538 0 77.7653 1.51374 76.2365 3.52828C74.7038 5.54799 73.7475 8.17552 73.7475 10.6274C73.7475 13.0793 74.7038 15.7068 76.2365 17.7265C77.7653 19.7411 79.9538 21.2548 82.4633 21.2548C84.9728 21.2548 87.1613 19.7411 88.6902 17.7265C90.2229 15.7068 91.1792 13.0793 91.1792 10.6274C91.1792 8.17552 90.2229 5.54799 88.6902 3.52828C87.1613 1.51374 84.9728 0 82.4633 0Z" fill="#FFE9D9" fill-opacity="0.4"/>
<path d="M104.02 11.1811C101.639 10.5343 99.1845 11.3801 97.2304 12.8685C95.2729 14.3594 93.7123 16.5684 93.1058 18.8629C92.4994 21.1571 92.7616 23.8586 93.7199 26.1383C94.6762 28.4133 96.3811 30.3865 98.7603 31.0327C101.142 31.6795 103.596 30.8337 105.55 29.3454C107.508 27.8544 109.068 25.6454 109.675 23.3509C110.281 21.0567 110.019 18.3552 109.061 16.0755C108.104 13.8005 106.399 11.8273 104.02 11.1811Z" fill="#FFE9D9" fill-opacity="0.4"/>
<path d="M72.2803 19.1157C71.6598 16.7682 70.0628 14.5074 68.0593 12.9814C66.0592 11.458 63.5492 10.5941 61.1157 11.255C58.6842 11.9155 56.9402 13.9326 55.9614 16.2612C54.9805 18.5945 54.7124 21.3594 55.3328 23.7065C55.9533 26.054 57.5503 28.3148 59.5538 29.8408C61.5539 31.3641 64.0639 32.2281 66.4974 31.5672C68.9289 30.9067 70.6729 28.8896 71.6517 26.561C72.6326 24.2277 72.9008 21.4628 72.2803 19.1157Z" fill="#FFE9D9" fill-opacity="0.4"/>
<path d="M82.3826 23.5341C82.41 23.5344 82.433 23.535 82.4514 23.5355C82.4575 23.5351 82.4639 23.5347 82.4709 23.5344C82.4849 23.5335 82.5007 23.5327 82.5184 23.532C82.5869 23.5289 82.6827 23.5264 82.8026 23.5276C83.0421 23.53 83.3789 23.5471 83.7856 23.6045C84.5983 23.7193 85.6983 23.9962 86.8587 24.6449C89.2112 25.96 91.6826 28.7283 92.6157 34.3938L92.625 34.4503V34.5076C92.625 34.9036 92.7221 35.1191 92.8324 35.2551C92.9513 35.4017 93.1496 35.5347 93.4853 35.6494C93.8243 35.7652 94.2457 35.8434 94.759 35.917C94.9288 35.9413 95.1124 35.9656 95.3041 35.9909C95.6622 36.0382 96.0491 36.0894 96.4256 36.1515C97.6052 36.3463 98.9385 36.6833 100.078 37.5676C101.239 38.4676 102.12 39.8705 102.52 42.042C102.917 44.1857 102.729 45.9647 102.123 47.4066C101.516 48.8496 100.511 49.9067 99.3533 50.637C97.0724 52.0761 94.15 52.279 92.2981 51.6857C90.7284 51.1828 88.2869 50.8778 86.1855 50.7011C85.1455 50.6137 84.2072 50.559 83.5289 50.5262C83.1899 50.5098 82.9163 50.4989 82.7279 50.492C82.6337 50.4886 82.5608 50.4863 82.5117 50.4848L82.4563 50.4831L82.402 50.4848C82.3528 50.4863 82.2797 50.4887 82.1852 50.4921C81.9963 50.4989 81.7219 50.5098 81.3821 50.5262C80.702 50.559 79.7614 50.6137 78.7191 50.7012C76.6128 50.8779 74.1667 51.1829 72.5972 51.6857C70.7442 52.2829 67.8207 52.0792 65.5382 50.6398C64.3795 49.9091 63.3728 48.8515 62.7647 47.4081C62.1569 45.9656 61.9675 44.1861 62.3628 42.042C62.7611 39.882 63.5986 38.4808 64.7106 37.5775C65.8068 36.687 67.09 36.3477 68.2388 36.1521C68.6166 36.0878 69.0037 36.0357 69.364 35.9873C69.5418 35.9634 69.7131 35.9403 69.8735 35.9171C70.3817 35.8436 70.8112 35.765 71.1703 35.6469C71.5256 35.53 71.7704 35.3872 71.9387 35.2116C72.0989 35.0443 72.2325 34.8028 72.2903 34.4065C73.1007 28.8526 75.5835 26.0858 77.9648 24.7414C79.139 24.0785 80.2599 23.7778 81.0888 23.6425C81.5039 23.5747 81.8482 23.5481 82.0928 23.5385C82.2152 23.5338 82.313 23.5333 82.3826 23.5341Z" fill="#FFE9D9" fill-opacity="0.4"/>
</svg>
