<svg width="24" height="24" viewBox="0 0 24 24" fill="none" xmlns="http://www.w3.org/2000/svg">
<path d="M17.6921 15.0145L17.4542 15.3754L17.777 15.663C17.7955 15.6795 17.8123 15.6929 17.8248 15.7027C17.8337 15.7095 17.8442 15.7175 17.8497 15.7216L17.8526 15.7238C17.8531 15.7242 17.8536 15.7246 17.8541 15.725L23.0591 20.9298C23.0591 20.9298 23.0591 20.9299 23.0591 20.9299C23.647 21.5179 23.647 22.4711 23.0591 23.0591C22.471 23.647 21.5177 23.6469 20.9298 23.0591C20.9298 23.0591 20.9297 23.0591 20.9297 23.0591L15.7248 17.8542C15.7245 17.8537 15.7241 17.8532 15.7238 17.8527C15.7226 17.8513 15.7204 17.8483 15.7175 17.8445C15.7132 17.8388 15.7076 17.8313 15.7024 17.8247C15.6926 17.8121 15.6789 17.7951 15.6623 17.7764L15.3746 17.4546L15.0143 17.6921C13.5369 18.6661 11.7693 19.2343 9.86705 19.2343C4.69374 19.2343 0.5 15.0404 0.5 9.86714C0.5 4.69383 4.69383 0.5 9.86714 0.5C15.0405 0.5 19.2343 4.69383 19.2343 9.86724C19.2343 11.7694 18.6661 13.5371 17.6921 15.0145ZM2.92053 9.86714C2.92053 13.7036 6.03058 16.8137 9.86714 16.8137C13.7035 16.8137 16.8137 13.7036 16.8137 9.86714C16.8137 6.03068 13.7035 2.92053 9.86714 2.92053C6.03068 2.92053 2.92053 6.03057 2.92053 9.86714Z" fill="#FF145B" stroke="#FF145B"/>
</svg>
