<svg width="25" height="23" viewBox="0 0 25 23" fill="none" xmlns="http://www.w3.org/2000/svg">
<mask id="path-1-inside-1" fill="white">
<path d="M24.5804 10.3939L20.7915 6.65051V2.32627C20.7915 1.54439 20.1502 0.910737 19.3576 0.910737C18.5669 0.910737 17.9256 1.54439 17.9256 2.32627V3.81909L15.1045 1.03174C13.7097 -0.345551 11.2846 -0.343107 9.89303 1.03424L0.419436 10.3939C-0.139812 10.9475 -0.139812 11.8433 0.419436 12.3961C0.978935 12.9496 1.8874 12.9496 2.44669 12.3961L11.9194 3.03621C12.228 2.73292 12.7719 2.73292 13.0789 3.03531L22.5532 12.3961C22.8341 12.6729 23.2004 12.8105 23.5665 12.8105C23.9335 12.8105 24.3003 12.6727 24.5804 12.3961C25.1399 11.8434 25.1399 10.9476 24.5804 10.3939Z"/>
<path d="M12.9977 5.72324C12.7224 5.45146 12.2768 5.45146 12.0024 5.72324L3.66935 13.9538C3.53779 14.0837 3.4632 14.2611 3.4632 14.4462V20.4492C3.4632 21.8579 4.61924 23 6.04497 23H10.1706V16.6874H14.8285V23H18.9542C20.3799 23 21.5359 21.8579 21.5359 20.4493V14.4462C21.5359 14.2611 21.462 14.0837 21.3298 13.9538L12.9977 5.72324Z"/>
</mask>
<path d="M24.5804 10.3939L20.7915 6.65051V2.32627C20.7915 1.54439 20.1502 0.910737 19.3576 0.910737C18.5669 0.910737 17.9256 1.54439 17.9256 2.32627V3.81909L15.1045 1.03174C13.7097 -0.345551 11.2846 -0.343107 9.89303 1.03424L0.419436 10.3939C-0.139812 10.9475 -0.139812 11.8433 0.419436 12.3961C0.978935 12.9496 1.8874 12.9496 2.44669 12.3961L11.9194 3.03621C12.228 2.73292 12.7719 2.73292 13.0789 3.03531L22.5532 12.3961C22.8341 12.6729 23.2004 12.8105 23.5665 12.8105C23.9335 12.8105 24.3003 12.6727 24.5804 12.3961C25.1399 11.8434 25.1399 10.9476 24.5804 10.3939Z" fill="#FF145B"/>
<path d="M12.9977 5.72324C12.7224 5.45146 12.2768 5.45146 12.0024 5.72324L3.66935 13.9538C3.53779 14.0837 3.4632 14.2611 3.4632 14.4462V20.4492C3.4632 21.8579 4.61924 23 6.04497 23H10.1706V16.6874H14.8285V23H18.9542C20.3799 23 21.5359 21.8579 21.5359 20.4493V14.4462C21.5359 14.2611 21.462 14.0837 21.3298 13.9538L12.9977 5.72324Z" fill="#FF145B"/>
<path d="M24.5804 10.3939L25.2838 9.6831L25.2832 9.68253L24.5804 10.3939ZM20.7915 6.65051H19.7915V7.06827L20.0887 7.36188L20.7915 6.65051ZM17.9256 3.81909L17.2228 4.53044L18.9256 6.21289V3.81909H17.9256ZM15.1045 1.03174L15.8073 0.320392L15.8071 0.320189L15.1045 1.03174ZM9.89303 1.03424L10.5958 1.74561L10.5965 1.74498L9.89303 1.03424ZM0.419436 10.3939L-0.283381 9.68252L-0.284093 9.68323L0.419436 10.3939ZM0.419436 12.3961L1.12271 11.6852L1.12242 11.6849L0.419436 12.3961ZM2.44669 12.3961L1.74383 11.6848L1.74329 11.6853L2.44669 12.3961ZM11.9194 3.03621L11.2184 2.323L11.2165 2.32488L11.9194 3.03621ZM13.0789 3.03531L13.7817 2.32396L13.7806 2.32291L13.0789 3.03531ZM22.5532 12.3961L21.8503 13.1075L21.8514 13.1085L22.5532 12.3961ZM24.5804 12.3961L25.2831 13.1076L25.2832 13.1075L24.5804 12.3961ZM12.9977 5.72324L13.7004 5.01181L13.7003 5.01168L12.9977 5.72324ZM12.0024 5.72324L12.7051 6.43471L12.706 6.43376L12.0024 5.72324ZM3.66935 13.9538L4.37204 14.6653L4.37207 14.6652L3.66935 13.9538ZM10.1706 23V24H11.1706V23H10.1706ZM10.1706 16.6874V15.6874H9.17064V16.6874H10.1706ZM14.8285 16.6874H15.8285V15.6874H14.8285V16.6874ZM14.8285 23H13.8285V24H14.8285V23ZM21.3298 13.9538L20.627 14.6652L20.6288 14.667L21.3298 13.9538ZM25.2832 9.68253L21.4943 5.93915L20.0887 7.36188L23.8775 11.1053L25.2832 9.68253ZM21.7915 6.65051V2.32627H19.7915V6.65051H21.7915ZM21.7915 2.32627C21.7915 0.980273 20.6906 -0.0892629 19.3576 -0.0892629V1.91074C19.6098 1.91074 19.7915 2.10851 19.7915 2.32627H21.7915ZM19.3576 -0.0892629C18.0257 -0.0892629 16.9256 0.981095 16.9256 2.32627H18.9256C18.9256 2.10769 19.1081 1.91074 19.3576 1.91074V-0.0892629ZM16.9256 2.32627V3.81909H18.9256V2.32627H16.9256ZM18.6285 3.10774L15.8073 0.320392L14.4017 1.7431L17.2228 4.53044L18.6285 3.10774ZM15.8071 0.320189C14.0225 -1.4421 10.9705 -1.43912 9.18958 0.323497L10.5965 1.74498C11.5988 0.752907 13.397 0.751003 14.4019 1.7433L15.8071 0.320189ZM9.19022 0.322865L-0.283381 9.68252L1.12225 11.1053L10.5958 1.74561L9.19022 0.322865ZM-0.284093 9.68323C-1.23833 10.6279 -1.23912 12.1628 -0.283548 13.1073L1.12242 11.6849C0.959497 11.5239 0.958709 11.2672 1.12296 11.1046L-0.284093 9.68323ZM-0.283837 13.107C0.665224 14.0459 2.20107 14.0461 3.1501 13.1069L1.74329 11.6853C1.57373 11.8531 1.29265 11.8533 1.12271 11.6852L-0.283837 13.107ZM3.14955 13.1074L12.6222 3.74754L11.2165 2.32488L1.74384 11.6848L3.14955 13.1074ZM12.6203 3.74942C12.5644 3.8044 12.5147 3.80862 12.5003 3.80863C12.486 3.80864 12.4347 3.80451 12.3771 3.74772L13.7806 2.32291C13.0832 1.63593 11.9149 1.63845 11.2184 2.323L12.6203 3.74942ZM12.376 3.74667L21.8503 13.1075L23.256 11.6848L13.7817 2.32396L12.376 3.74667ZM21.8514 13.1085C22.3278 13.5779 22.9498 13.8105 23.5665 13.8105V11.8105C23.4509 11.8105 23.3404 11.7679 23.255 11.6837L21.8514 13.1085ZM23.5665 13.8105C24.1832 13.8105 24.8066 13.5782 25.2831 13.1076L23.8777 11.6846C23.7941 11.7673 23.6837 11.8105 23.5665 11.8105V13.8105ZM25.2832 13.1075C26.2393 12.1629 26.2384 10.6278 25.2838 9.6831L23.877 11.1047C24.0413 11.2674 24.0405 11.5238 23.8776 11.6848L25.2832 13.1075ZM13.7003 5.01168C13.0362 4.35588 11.9634 4.3544 11.2987 5.01272L12.706 6.43376C12.5902 6.54852 12.4087 6.54704 12.295 6.4348L13.7003 5.01168ZM11.2996 5.01177L2.96663 13.2423L4.37207 14.6652L12.7051 6.43471L11.2996 5.01177ZM2.96666 13.2423C2.64594 13.559 2.4632 13.9922 2.4632 14.4462H4.4632C4.4632 14.53 4.42964 14.6084 4.37204 14.6653L2.96666 13.2423ZM2.4632 14.4462V20.4492H4.4632V14.4462H2.4632ZM2.4632 20.4492C2.4632 22.4215 4.07839 24 6.04497 24V22C5.1601 22 4.4632 21.2942 4.4632 20.4492H2.4632ZM6.04497 24H10.1706V22H6.04497V24ZM11.1706 23V16.6874H9.17064V23H11.1706ZM10.1706 17.6874H14.8285V15.6874H10.1706V17.6874ZM13.8285 16.6874V23H15.8285V16.6874H13.8285ZM14.8285 24H18.9542V22H14.8285V24ZM18.9542 24C20.9207 24 22.5359 22.4215 22.5359 20.4493H20.5359C20.5359 21.2942 19.839 22 18.9542 22V24ZM22.5359 20.4493V14.4462H20.5359V20.4493H22.5359ZM22.5359 14.4462C22.5359 13.9943 22.3553 13.5595 22.0307 13.2405L20.6288 14.667C20.5687 14.6079 20.5359 14.5278 20.5359 14.4462H22.5359ZM22.0325 13.2423L13.7004 5.01181L12.2949 6.43467L20.627 14.6652L22.0325 13.2423Z" fill="#FF145B" mask="url(#path-1-inside-1)"/>
</svg>
