<svg width="30" height="30" viewBox="0 0 30 30" fill="none" xmlns="http://www.w3.org/2000/svg">
<path fill-rule="evenodd" clip-rule="evenodd" d="M5.59293 1.03211C3.25439 1.42186 1.42186 3.25439 1.03211 5.59293L0.528451 8.61485C-0.17615 12.8425 -0.17615 17.1575 0.528451 21.3852L1.03211 24.4071C1.42186 26.7456 3.25439 28.5781 5.59293 28.9679L8.61485 29.4715C12.8425 30.1762 17.1575 30.1762 21.3851 29.4715L24.4071 28.9679C26.7456 28.5781 28.5781 26.7456 28.9679 24.4071L29.4715 21.3852C30.1761 17.1575 30.1761 12.8425 29.4715 8.61485L28.9679 5.59293C28.5781 3.25439 26.7456 1.42186 24.4071 1.03211L21.3851 0.528451C17.1575 -0.17615 12.8425 -0.17615 8.61485 0.528451L5.59293 1.03211ZM22.551 13.551C23.4838 13.551 24.24 14.3072 24.24 15.24C24.24 16.1728 23.4838 16.929 22.551 16.929H17.169C16.9039 16.929 16.689 17.1439 16.689 17.409L16.689 22.791C16.689 23.7238 15.9328 24.48 15 24.48C14.0672 24.48 13.311 23.7238 13.311 22.791V17.409C13.311 17.1439 13.0961 16.929 12.831 16.929L7.44903 16.929C6.5162 16.929 5.76 16.1728 5.76 15.24C5.76 14.3072 6.51621 13.551 7.44903 13.551L12.831 13.551C13.0961 13.551 13.311 13.3361 13.311 13.071V7.68903C13.311 6.75621 14.0672 6 15 6C15.9328 6 16.689 6.75621 16.689 7.68903V13.071C16.689 13.3361 16.9039 13.551 17.169 13.551L22.551 13.551Z" fill="#FF145B"/>
</svg>
