<svg width="19" height="23" viewBox="0 0 19 23" fill="none" xmlns="http://www.w3.org/2000/svg">
<mask id="path-1-inside-1" fill="white">
<path d="M9.35631 11.0791C10.8634 11.0791 12.1684 10.5332 13.2347 9.45616C14.301 8.37927 14.8415 7.06163 14.8415 5.53939C14.8415 4.01767 14.301 2.69985 13.2345 1.62261C12.1681 0.545902 10.8632 0 9.35631 0C7.84905 0 6.54438 0.545902 5.47809 1.62279C4.4118 2.69968 3.8711 4.01749 3.8711 5.53939C3.8711 7.06163 4.4118 8.37945 5.47826 9.45633C6.54473 10.533 7.84957 11.0791 9.35631 11.0791Z"/>
<path d="M18.954 17.6857C18.9232 17.2376 18.861 16.7487 18.7694 16.2325C18.677 15.7124 18.558 15.2207 18.4155 14.7713C18.2683 14.3068 18.0682 13.8481 17.8208 13.4086C17.564 12.9523 17.2624 12.555 16.9239 12.2281C16.57 11.8861 16.1366 11.6112 15.6356 11.4106C15.1362 11.2111 14.5828 11.11 13.9909 11.11C13.7584 11.11 13.5336 11.2063 13.0994 11.4918C12.8321 11.6678 12.5196 11.8714 12.1707 12.0965C11.8723 12.2885 11.4682 12.4684 10.969 12.6312C10.482 12.7904 9.98754 12.8711 9.49948 12.8711C9.01142 12.8711 8.51711 12.7904 8.02957 12.6312C7.53092 12.4685 7.12678 12.2887 6.8288 12.0967C6.48322 11.8737 6.17047 11.6701 5.89925 11.4917C5.46558 11.2062 5.24058 11.1098 5.0081 11.1098C4.41597 11.1098 3.86276 11.2111 3.36358 11.4108C2.86284 11.611 2.42934 11.886 2.07507 12.2283C1.73678 12.5554 1.43498 12.9525 1.17853 13.4086C0.931287 13.8481 0.73113 14.3066 0.583792 14.7715C0.441493 15.2209 0.322476 15.7124 0.230042 16.2325C0.138477 16.748 0.0762752 17.2371 0.0455219 17.6863C0.0152898 18.1264 0 18.5831 0 19.0444C0 20.245 0.377901 21.217 1.1231 21.9338C1.8591 22.6412 2.83296 23 4.01722 23H14.9828C16.167 23 17.1406 22.6413 17.8767 21.9338C18.6221 21.2175 19 20.2454 19 19.0443C18.9998 18.5808 18.9844 18.1237 18.954 17.6857Z"/>
</mask>
<path d="M9.35631 11.0791C10.8634 11.0791 12.1684 10.5332 13.2347 9.45616C14.301 8.37927 14.8415 7.06163 14.8415 5.53939C14.8415 4.01767 14.301 2.69985 13.2345 1.62261C12.1681 0.545902 10.8632 0 9.35631 0C7.84905 0 6.54438 0.545902 5.47809 1.62279C4.4118 2.69968 3.8711 4.01749 3.8711 5.53939C3.8711 7.06163 4.4118 8.37945 5.47826 9.45633C6.54473 10.533 7.84957 11.0791 9.35631 11.0791Z" fill="#FF145B"/>
<path d="M18.954 17.6857C18.9232 17.2376 18.861 16.7487 18.7694 16.2325C18.677 15.7124 18.558 15.2207 18.4155 14.7713C18.2683 14.3068 18.0682 13.8481 17.8208 13.4086C17.564 12.9523 17.2624 12.555 16.9239 12.2281C16.57 11.8861 16.1366 11.6112 15.6356 11.4106C15.1362 11.2111 14.5828 11.11 13.9909 11.11C13.7584 11.11 13.5336 11.2063 13.0994 11.4918C12.8321 11.6678 12.5196 11.8714 12.1707 12.0965C11.8723 12.2885 11.4682 12.4684 10.969 12.6312C10.482 12.7904 9.98754 12.8711 9.49948 12.8711C9.01142 12.8711 8.51711 12.7904 8.02957 12.6312C7.53092 12.4685 7.12678 12.2887 6.8288 12.0967C6.48322 11.8737 6.17047 11.6701 5.89925 11.4917C5.46558 11.2062 5.24058 11.1098 5.0081 11.1098C4.41597 11.1098 3.86276 11.2111 3.36358 11.4108C2.86284 11.611 2.42934 11.886 2.07507 12.2283C1.73678 12.5554 1.43498 12.9525 1.17853 13.4086C0.931287 13.8481 0.73113 14.3066 0.583792 14.7715C0.441493 15.2209 0.322476 15.7124 0.230042 16.2325C0.138477 16.748 0.0762752 17.2371 0.0455219 17.6863C0.0152898 18.1264 0 18.5831 0 19.0444C0 20.245 0.377901 21.217 1.1231 21.9338C1.8591 22.6412 2.83296 23 4.01722 23H14.9828C16.167 23 17.1406 22.6413 17.8767 21.9338C18.6221 21.2175 19 20.2454 19 19.0443C18.9998 18.5808 18.9844 18.1237 18.954 17.6857Z" fill="#FF145B"/>
<path d="M13.2347 9.45616L12.5241 8.75256L12.5241 8.75261L13.2347 9.45616ZM13.2345 1.62261L13.9452 0.919072L13.945 0.918898L13.2345 1.62261ZM5.47826 9.45633L4.76773 10.16L4.76778 10.1601L5.47826 9.45633ZM18.954 17.6857L17.9563 17.7542L17.9564 17.755L18.954 17.6857ZM18.7694 16.2325L19.7541 16.0578L19.754 16.0575L18.7694 16.2325ZM18.4155 14.7713L17.4622 15.0733L17.4623 15.0735L18.4155 14.7713ZM17.8208 13.4086L16.9493 13.8991V13.8991L17.8208 13.4086ZM16.9239 12.2281L16.229 12.9472L16.2292 12.9474L16.9239 12.2281ZM15.6356 11.4106L16.0072 10.4822L16.0066 10.482L15.6356 11.4106ZM13.0994 11.4918L12.55 10.6563L12.5493 10.6567L13.0994 11.4918ZM12.1707 12.0965L12.7118 12.9375L12.7129 12.9368L12.1707 12.0965ZM10.969 12.6312L10.6589 11.6805L10.6584 11.6807L10.969 12.6312ZM8.02957 12.6312L8.3399 11.6806L8.3397 11.6805L8.02957 12.6312ZM6.8288 12.0967L6.28655 12.9369L6.28722 12.9374L6.8288 12.0967ZM5.89925 11.4917L5.34939 12.3269L5.34959 12.327L5.89925 11.4917ZM3.36358 11.4108L3.73484 12.3393L3.735 12.3392L3.36358 11.4108ZM2.07507 12.2283L1.38016 11.5092L1.37996 11.5094L2.07507 12.2283ZM1.17853 13.4086L2.05012 13.8988L2.05017 13.8987L1.17853 13.4086ZM0.583792 14.7715L-0.369467 14.4693L-0.369555 14.4696L0.583792 14.7715ZM0.230042 16.2325L-0.75453 16.0575L-0.754549 16.0576L0.230042 16.2325ZM0.0455219 17.6863L1.04317 17.7548L1.04319 17.7546L0.0455219 17.6863ZM1.1231 21.9338L0.429859 22.6545L0.430174 22.6548L1.1231 21.9338ZM17.8767 21.9338L17.1838 21.2128L17.1838 21.2128L17.8767 21.9338ZM19 19.0443H20V19.0439L19 19.0443ZM9.35631 12.0791C11.1319 12.0791 12.6923 11.4254 13.9454 10.1597L12.5241 8.75261C11.6445 9.64107 10.5949 10.0791 9.35631 10.0791V12.0791ZM13.9453 10.1598C15.1979 8.89468 15.8415 7.3238 15.8415 5.53939H13.8415C13.8415 6.79946 13.4041 7.86386 12.5241 8.75256L13.9453 10.1598ZM15.8415 5.53939C15.8415 3.75545 15.1979 2.18444 13.9452 0.919072L12.5239 2.32616C13.4041 3.21527 13.8415 4.27989 13.8415 5.53939H15.8415ZM13.945 0.918898C12.6919 -0.346228 11.1318 -1 9.35631 -1V1C10.5947 1 11.6442 1.43803 12.5241 2.32633L13.945 0.918898ZM9.35631 -1C7.5805 -1 6.02045 -0.346224 4.76749 0.919189L6.18868 2.32639C7.0683 1.43803 8.1176 1 9.35631 1V-1ZM4.76749 0.919189C3.51492 2.18421 2.8711 3.75525 2.8711 5.53939H4.8711C4.8711 4.27974 5.30868 3.21515 6.18868 2.32639L4.76749 0.919189ZM2.8711 5.53939C2.8711 7.32385 3.51491 8.89493 4.76773 10.16L6.1888 8.75267C5.30869 7.86396 4.8711 6.79941 4.8711 5.53939H2.8711ZM4.76778 10.1601C6.02079 11.4251 7.58092 12.0791 9.35631 12.0791V10.0791C8.11822 10.0791 7.06866 9.64099 6.18874 8.75262L4.76778 10.1601ZM19.9516 17.6173C19.918 17.128 19.8508 16.6033 19.7541 16.0578L17.7848 16.4071C17.8712 16.8941 17.9284 17.3472 17.9563 17.7542L19.9516 17.6173ZM19.754 16.0575C19.6548 15.4995 19.5259 14.9649 19.3688 14.4691L17.4623 15.0735C17.59 15.4765 17.6992 15.9252 17.7849 16.4074L19.754 16.0575ZM19.3688 14.4692C19.2002 13.9371 18.9722 13.4154 18.6922 12.918L16.9493 13.8991C17.1642 14.2808 17.3365 14.6765 17.4622 15.0733L19.3688 14.4692ZM18.6922 12.918C18.3934 12.3871 18.0343 11.9104 17.6186 11.5089L16.2292 12.9474C16.4904 13.1997 16.7346 13.5175 16.9493 13.8991L18.6922 12.918ZM17.6188 11.509C17.163 11.0686 16.6169 10.7262 16.0072 10.4822L15.2639 12.339C15.6564 12.4961 15.9769 12.7036 16.229 12.9472L17.6188 11.509ZM16.0066 10.482C15.3777 10.2307 14.6969 10.11 13.9909 10.11V12.11C14.4687 12.11 14.8947 12.1914 15.2645 12.3392L16.0066 10.482ZM13.9909 10.11C13.4351 10.11 12.99 10.3669 12.55 10.6563L13.6488 12.3274C13.852 12.1938 13.9578 12.1374 14.0145 12.1131C14.0516 12.0972 14.032 12.11 13.9909 12.11V10.11ZM12.5493 10.6567C12.2853 10.8306 11.9754 11.0324 11.6285 11.2563L12.7129 12.9368C13.0637 12.7104 13.379 12.5051 13.6494 12.327L12.5493 10.6567ZM11.6295 11.2556C11.4286 11.3849 11.1116 11.5328 10.6589 11.6805L11.2792 13.5819C11.8248 13.4039 12.3161 13.1921 12.7118 12.9375L11.6295 11.2556ZM10.6584 11.6807C10.2666 11.8087 9.87686 11.8711 9.49948 11.8711V13.8711C10.0982 13.8711 10.6974 13.772 11.2797 13.5817L10.6584 11.6807ZM9.49948 11.8711C9.12218 11.8711 8.73247 11.8087 8.3399 11.6806L7.71924 13.5818C8.30175 13.772 8.90066 13.8711 9.49948 13.8711V11.8711ZM8.3397 11.6805C7.88749 11.533 7.57069 11.3851 7.37038 11.2561L6.28722 12.9374C6.68287 13.1922 7.17435 13.4041 7.71945 13.5819L8.3397 11.6805ZM7.37105 11.2565C7.0273 11.0346 6.71711 10.8327 6.44892 10.6563L5.34959 12.327C5.62384 12.5075 5.93914 12.7127 6.28655 12.9369L7.37105 11.2565ZM6.44912 10.6564C6.00907 10.3667 5.56391 10.1098 5.0081 10.1098V12.1098C4.96699 12.1098 4.94744 12.097 4.98444 12.1129C5.041 12.1371 5.14659 12.1934 5.34939 12.3269L6.44912 10.6564ZM5.0081 10.1098C4.30163 10.1098 3.62087 10.2308 2.99216 10.4823L3.735 12.3392C4.10464 12.1914 4.53031 12.1098 5.0081 12.1098V10.1098ZM2.99232 10.4822C2.38271 10.726 1.83628 11.0684 1.38016 11.5092L2.76997 12.9474C3.0224 12.7035 3.34297 12.496 3.73484 12.3393L2.99232 10.4822ZM1.37996 11.5094C0.964941 11.9107 0.605684 12.387 0.306888 12.9184L2.05017 13.8987C2.26428 13.5179 2.50862 13.2001 2.77017 12.9472L1.37996 11.5094ZM0.306945 12.9183C0.0273224 13.4154 -0.200684 13.9368 -0.369467 14.4693L1.53705 15.0736C1.66294 14.6764 1.83525 14.2808 2.05012 13.8988L0.306945 12.9183ZM-0.369555 14.4696C-0.526473 14.9651 -0.655358 15.4995 -0.75453 16.0575L1.21461 16.4074C1.30031 15.9253 1.40946 15.4766 1.53714 15.0733L-0.369555 14.4696ZM-0.754549 16.0576C-0.851346 16.6026 -0.918571 17.1276 -0.952143 17.618L1.04319 17.7546C1.07112 17.3465 1.1283 16.8934 1.21463 16.4073L-0.754549 16.0576ZM-0.952127 17.6177C-0.983998 18.0817 -1 18.5613 -1 19.0444H1C1 18.6049 1.01458 18.171 1.04317 17.7548L-0.952127 17.6177ZM-1 19.0444C-1 20.4694 -0.543164 21.7186 0.429859 22.6545L1.81635 21.2131C1.29897 20.7154 1 20.0207 1 19.0444H-1ZM0.430174 22.6548C1.38216 23.5697 2.619 24 4.01722 24V22C3.04691 22 2.33604 21.7126 1.81604 21.2128L0.430174 22.6548ZM4.01722 24H14.9828V22H4.01722V24ZM14.9828 24C16.381 24 17.6175 23.5699 18.5697 22.6548L17.1838 21.2128C16.6636 21.7127 15.9531 22 14.9828 22V24ZM18.5696 22.6549C19.5433 21.7192 20 20.4696 20 19.0443H18C18 20.0212 17.7009 20.7159 17.1838 21.2128L18.5696 22.6549ZM20 19.0439C19.9998 18.5588 19.9836 18.0787 19.9516 17.6165L17.9564 17.755C17.9851 18.1688 17.9998 18.6029 18 19.0446L20 19.0439Z" fill="#FF145B" mask="url(#path-1-inside-1)"/>
</svg>
