<svg width="16" height="16" viewBox="0 0 16 16" fill="none" xmlns="http://www.w3.org/2000/svg">
<path d="M13.4201 4.03126C12.7139 3.07283 11.8177 2.35007 10.7314 1.86286C9.64488 1.3757 8.49665 1.19699 7.2858 1.3267C6.07508 1.45639 4.99042 1.87429 4.03195 2.58051C3.07341 3.28667 2.35065 4.18285 1.86341 5.26922C1.37615 6.35566 1.19747 7.50423 1.32715 8.71485C1.45684 9.92554 1.87482 11.01 2.58096 11.9687C3.28721 12.9271 4.18339 13.6499 5.26977 14.1371C6.3562 14.6243 7.50469 14.803 8.71538 14.6733C9.92607 14.5436 11.0108 14.1257 11.9693 13.4195C12.9278 12.7134 13.6505 11.817 14.1377 10.7307C14.6248 9.64431 14.8034 8.49578 14.6737 7.28516C14.5441 6.07441 14.1262 4.98972 13.4201 4.03126ZM12.2187 6.51984L8.00598 11.7434C7.9077 11.8654 7.78044 11.9346 7.62395 11.9514C7.47336 11.9675 7.33717 11.9265 7.21526 11.8281L3.73272 9.01965C3.61739 8.92644 3.55126 8.80196 3.53449 8.6454C3.51712 8.48325 3.55485 8.34434 3.64801 8.22887L4.35497 7.36221C4.45338 7.24035 4.57766 7.17138 4.72837 7.15524C4.87908 7.1391 5.01533 7.18019 5.13714 7.27842L7.31129 9.03179L10.4776 5.11556C10.5759 4.99369 10.7003 4.92468 10.8509 4.90854C11.0014 4.89242 11.1378 4.9335 11.2596 5.0318L12.1341 5.72917C12.2497 5.82219 12.316 5.94983 12.3334 6.11199C12.3501 6.26845 12.3121 6.40437 12.2187 6.51984Z" fill="#01EA7A"/>
</svg>
