<svg width="24" height="22" viewBox="0 0 24 22" fill="none" xmlns="http://www.w3.org/2000/svg">
<path d="M11.9997 15.4599C11.3287 15.4599 10.7663 16.0238 10.7663 16.6966C10.7663 17.3695 11.3287 17.9334 11.9997 17.9334C12.646 17.9334 13.2331 17.3695 13.2035 16.7263C13.2331 16.0189 12.6756 15.4599 11.9997 15.4599Z" fill="#FF004D"/>
<path d="M23.416 19.843C24.1905 18.5024 24.1955 16.9044 23.4258 15.5687L15.6999 2.15201C14.9352 0.801439 13.5538 0 12.0046 0C10.4555 0 9.07409 0.806386 8.30939 2.14707L0.573551 15.5786C-0.196086 16.9292 -0.191152 18.537 0.588352 19.8777C1.35799 21.2035 2.73445 22 4.27373 22H19.7059C21.2501 22 22.6365 21.1936 23.416 19.843ZM21.7386 18.8734C21.3093 19.6155 20.5496 20.0558 19.701 20.0558H4.26879C3.43009 20.0558 2.67525 19.6254 2.2559 18.8981C1.83161 18.161 1.82668 17.2804 2.25096 16.5383L9.9868 3.11176C10.4062 2.37463 11.1561 1.93928 12.0046 1.93928C12.8483 1.93928 13.6031 2.37958 14.0225 3.11671L21.7534 16.5433C22.1678 17.2656 22.1628 18.1363 21.7386 18.8734Z" fill="#FF004D"/>
<path d="M11.6938 6.7776C11.1067 6.94581 10.7416 7.4801 10.7416 8.12818C10.7712 8.519 10.7959 8.91477 10.8255 9.3056C10.9094 10.7947 10.9932 12.2541 11.0771 13.7432C11.1067 14.2478 11.4965 14.6139 11.9997 14.6139C12.5029 14.6139 12.8976 14.2231 12.9223 13.7135C12.9223 13.4068 12.9223 13.1248 12.9519 12.8131C13.0061 11.8583 13.0653 10.9035 13.1196 9.94873C13.1492 9.33033 13.2035 8.71194 13.2331 8.09355C13.2331 7.87092 13.2035 7.67304 13.1196 7.47515C12.868 6.92107 12.2809 6.63908 11.6938 6.7776Z" fill="#FF004D"/>
</svg>
