<svg width="241" height="230" viewBox="0 0 241 230" fill="none" xmlns="http://www.w3.org/2000/svg">
<path d="M120.339 0C109.343 0 99.7536 6.69537 93.0545 15.6059C86.3383 24.5392 82.1481 36.161 82.1481 47.0058C82.1481 57.8506 86.3383 69.4724 93.0545 78.4057C99.7536 87.3162 109.343 94.0116 120.339 94.0116C131.336 94.0116 140.925 87.3162 147.624 78.4057C154.34 69.4724 158.531 57.8506 158.531 47.0058C158.531 36.161 154.34 24.5392 147.624 15.6059C140.925 6.69537 131.336 0 120.339 0Z" fill="#D4B7A3"/>
<path d="M214.798 49.4549C204.364 46.5942 193.609 50.335 185.046 56.9182C176.469 63.5127 169.63 73.2834 166.973 83.4322C164.315 93.5793 165.464 105.528 169.663 115.612C173.854 125.674 181.324 134.402 191.75 137.26C202.184 140.121 212.939 136.38 221.501 129.797C230.079 123.202 236.917 113.431 239.575 103.283C242.232 93.1356 241.083 81.1865 236.884 71.1034C232.693 61.0409 225.223 52.3132 214.798 49.4549Z" fill="#D4B7A3"/>
<path d="M75.7193 84.5503C73.0002 74.1671 66.0024 64.1672 57.2237 57.4178C48.4596 50.6798 37.4612 46.8584 26.7981 49.7819C16.1437 52.703 8.50182 61.625 4.21259 71.9246C-0.0852339 82.245 -1.26038 94.4741 1.45822 104.856C4.17727 115.239 11.175 125.239 19.9538 131.988C28.7179 138.726 39.7163 142.547 50.3794 139.624C61.0338 136.703 68.6757 127.781 72.9649 117.481C77.2627 107.161 78.4379 94.9317 75.7193 84.5503Z" fill="#D4B7A3"/>
<path d="M119.986 104.093C120.105 104.095 120.206 104.097 120.287 104.099C120.314 104.098 120.342 104.096 120.372 104.094C120.434 104.091 120.503 104.087 120.581 104.084C120.881 104.07 121.301 104.059 121.826 104.064C122.875 104.075 124.351 104.151 126.133 104.405C129.694 104.912 134.514 106.137 139.599 109.006C149.907 114.823 160.736 127.067 164.825 152.126L164.866 152.376V152.63C164.866 154.381 165.291 155.334 165.775 155.936C166.296 156.584 167.165 157.173 168.636 157.68C170.121 158.192 171.968 158.538 174.217 158.864C174.961 158.971 175.765 159.078 176.605 159.191C178.174 159.4 179.87 159.626 181.519 159.901C186.688 160.762 192.53 162.253 197.526 166.164C202.609 170.145 206.47 176.35 208.224 185.955C209.963 195.437 209.14 203.305 206.484 209.683C203.826 216.066 199.421 220.741 194.348 223.971C184.353 230.336 171.548 231.234 163.433 228.61C156.556 226.385 145.857 225.037 136.649 224.255C132.092 223.868 127.981 223.626 125.009 223.481C123.523 223.409 122.324 223.36 121.499 223.33C121.086 223.315 120.766 223.305 120.551 223.298L120.309 223.291L120.071 223.298C119.855 223.305 119.535 223.315 119.121 223.33C118.293 223.36 117.091 223.409 115.601 223.481C112.621 223.626 108.5 223.868 103.933 224.255C94.7034 225.037 83.9851 226.386 77.1077 228.61C68.9881 231.251 56.1779 230.35 46.1765 223.984C41.0994 220.752 36.6881 216.074 34.0235 209.69C31.3604 203.309 30.5302 195.438 32.2624 185.955C34.0075 176.401 37.6776 170.203 42.5499 166.208C47.3535 162.269 52.9764 160.769 58.0101 159.904C59.6655 159.619 61.3615 159.389 62.9405 159.175C63.7193 159.069 64.4702 158.967 65.1731 158.864C67.3998 158.539 69.2819 158.192 70.8553 157.669C72.4121 157.152 73.485 156.52 74.2222 155.744C74.9241 155.004 75.5097 153.935 75.7631 152.182C79.3138 127.617 90.1931 115.379 100.628 109.433C105.773 106.501 110.684 105.171 114.317 104.573C116.135 104.273 117.644 104.155 118.716 104.113C119.252 104.092 119.681 104.089 119.986 104.093Z" fill="#D4B7A3"/>
</svg>
