<svg width="15" height="20" viewBox="0 0 15 20" fill="none" xmlns="http://www.w3.org/2000/svg">
<path d="M13.9359 8.07683H13.5556V6.25292C13.5556 2.87944 10.9434 0.0613889 7.67834 0.00123271C7.58913 -0.000410903 7.41087 -0.000410903 7.32169 0.00123271C4.05659 0.0613889 1.44436 2.87944 1.44436 6.25292V8.07683H1.06406C0.47802 8.07683 0 8.69656 0 9.46194V18.61C0 19.3745 0.47802 20 1.0641 20H13.9359C14.5219 20 15 19.3745 15 18.61V9.46194C15 8.6966 14.522 8.07683 13.9359 8.07683ZM8.70591 14.0267V16.7908C8.70591 17.1074 8.44734 17.3752 8.13824 17.3752H6.86184C6.5527 17.3752 6.29412 17.1074 6.29412 16.7908V14.0267C5.99433 13.7242 5.81979 13.3061 5.81979 12.8435C5.81979 11.9668 6.48101 11.2136 7.32173 11.1788C7.41083 11.1751 7.58929 11.1751 7.67838 11.1788C8.51911 11.2136 9.18032 11.9668 9.18032 12.8435C9.18024 13.3061 9.00571 13.7242 8.70591 14.0267ZM11.0493 8.07683H7.67834H7.32169H3.95078V6.25292C3.95078 4.24339 5.54434 2.58183 7.5 2.58183C9.45566 2.58183 11.0493 4.24339 11.0493 6.25292V8.07683H11.0493Z" fill="#D4B7A3"/>
</svg>
